<?xml version="1.0" encoding="utf-8"?>
<!-- Generator: Adobe Illustrator 22.0.1, SVG Export Plug-In . SVG Version: 6.00 Build 0)  -->
<svg version="1.1" id="레이어_1" xmlns="http://www.w3.org/2000/svg" xmlns:xlink="http://www.w3.org/1999/xlink" x="0px"
	 y="0px" viewBox="0 0 160 48" style="enable-background:new 0 0 160 48;" xml:space="preserve">
<style type="text/css">
	.st0{fill:#FFFFFF;}
	.st1{fill:#C90915;}
</style>
<polygon class="st0" points="23.1,29.7 19.6,21 23.1,14.8 42.4,12.8 75.6,10.4 140,18.9 143.6,28.9 138.7,32.9 121.9,35.8 71.9,37 
	"/>
<title>logo_pc1x</title>
<path class="st1" d="M160,23.8c0,2.3-1.5,4.4-3.7,5.2c-0.9,0.3-1.8,0.5-2.7,0.7L134,34.6l-19.1,4.8l-24.2,6
	c-3.4,0.8-6.8,1.7-10.2,2.6c-0.4,0.1-0.8,0.1-1.1,0l-24.8-6.2l-26-6.5c-8.2-2-16.3-4-24.5-6.1C2,28.7,0.5,27,0.2,25
	c-0.6-2.6,0.7-5.2,3.1-6.4c0.8-0.4,1.6-0.7,2.4-0.8l18.2-4.4l28.9-6.9L75.5,1l4.2-1c0.2,0,0.3,0,0.5,0l12,2.9l30.4,7.3l16.7,4
	c5.4,1.3,10.8,2.6,16.3,3.9c2.2,0.7,3.9,2.5,4.3,4.8L160,23.8z M136.7,26.4v-5.3c0-0.7-0.3-1-1-1h-3.4c-0.6,0-0.9,0.2-1,0.8
	c-0.1,0.3-0.2,0.4-0.5,0.3l-0.3-0.1c-1.5-0.8-3.3-1-4.9-0.6c-1.3,0.3-2.6,0.8-3.7,1.6c-1.2,0.8-1.5,2.4-0.6,3.6
	c0.2,0.3,0.5,0.6,0.8,0.8c0.5,0.3,1,0.6,1.5,0.8c2.3,1.1,4.9,1.1,7.1-0.1c0.4-0.2,0.6-0.1,0.6,0.3v3.5c0,0.3-0.2,0.7-0.5,0.8
	c-0.3,0.2-0.7,0.3-1,0.3c-2.5,0.4-5,0.4-7.5,0c-0.5-0.1-0.7,0.2-0.8,0.6c-0.1,0.4,0.2,0.7,0.5,0.8c0.1,0,0.1,0,0.2,0
	c1.4,0.2,2.8,0.4,4.2,0.4c3,0.1,6-0.2,9-0.8c0.7,0,1.3-0.6,1.2-1.4c0,0,0-0.1,0-0.1L136.7,26.4z M24.1,21.9v5.2c0,0.6,0.3,0.9,1,0.9
	c1.2,0,2.4,0,3.6,0c0.7,0,1-0.3,1-1c0-1.4,0-2.7,0-4.1c0-0.1,0.1-0.2,0.1-0.4c0.1,0.1,0.2,0.2,0.3,0.3s0,0.1,0,0.2l1.3,4.5
	c0,0.3,0.3,0.5,0.6,0.5h4.6c0.4,0,0.5-0.1,0.4-0.5l-1.4-5.4l-0.7-2.7c-0.1-0.5-0.1-0.5,0.4-0.8l1.5-0.6c0.3-0.1,0.5-0.4,0.4-0.7
	c0-0.3,0-0.7,0-1c0-0.3-0.1-0.4-0.5-0.4c-0.1,0-0.2,0.1-0.3,0.1l-5.5,2.1c-0.2,0.1-0.4,0.1-0.6,0.2c-0.4,0-0.5-0.1-0.5-0.5
	s0-0.8,0-1.2c0-0.7-0.3-0.9-0.9-0.9H25c-0.7,0-1,0.3-1,0.9L24.1,21.9z M53.2,24.1v3c0,0.6,0.3,1,1,1c1.2,0,2.3,0,3.5,0
	c0.7,0,1-0.3,1-1c0-1,0-2.1,0-3.1c0-0.3,0-0.7,0-1c0-0.5,0.4-1,0.9-1c0.5,0,0.9,0.3,0.9,0.9c0,1.4,0,2.8,0,4.2
	c0,0.4,0.3,0.8,0.7,0.9c0.1,0,0.1,0,0.2,0c1.2,0,2.3,0,3.5,0c0.4,0,0.8-0.3,0.9-0.7c0-0.1,0-0.1,0-0.2c0-1,0-2.1,0-3.1
	c0-0.4,0.1-0.8,0.2-1.2c0.1-0.4,0.6-0.7,1-0.6c0.1,0,0.1,0,0.2,0.1c0.3,0.2,0.5,0.5,0.4,0.9v3.9c0,0.4,0.3,0.8,0.7,0.9
	c0.1,0,0.1,0,0.2,0c1.2,0,2.3,0,3.5,0c0.4,0.1,0.8-0.3,0.9-0.7c0-0.1,0-0.1,0-0.2c0-1,0-2,0-3c0-0.5-0.1-1-0.2-1.5
	c-0.8-1.8-2.8-2.9-4.8-2.4c-0.9,0.2-1.7,0.5-2.4,1.1c-0.3,0.2-0.6,0.2-0.8,0c-0.8-1-2-1.4-3.2-1.3c-0.7,0-1.4,0.2-2,0.6
	c-0.2,0.1-0.5,0.2-0.7-0.1c-0.1-0.3-0.4-0.4-0.7-0.4c-1.3,0-2.5,0-3.8,0c-0.4-0.1-0.8,0.3-0.9,0.7c0,0.1,0,0.1,0,0.2L53.2,24.1z
	 M74.9,21.9v5.2c0,0.5,0.3,0.9,0.7,0.9c0.1,0,0.1,0,0.2,0c1.2,0,2.4,0,3.6,0c0.5,0,0.9-0.3,0.9-0.7c0-0.1,0-0.1,0-0.2
	c0-0.7,0-1.5,0-2.2c0-0.1,0.1-0.2,0.1-0.3c0.1,0.1,0.2,0.1,0.2,0.2c0.4,0.9,0.8,1.8,1.3,2.6c0.1,0.3,0.5,0.5,0.8,0.5
	c1.3,0,2.7,0,4,0c0.7,0,0.9-0.3,0.6-0.9c-0.6-1.5-1.3-3-1.9-4.4c-0.1-0.3-0.1-0.5,0.2-0.6s0.7-0.3,1.1-0.4c1.2-0.4,0.9-0.3,1-1.4
	c0-0.4-0.1-0.5-0.6-0.4l-2.8,0.7l-3.4,0.9c-0.5,0.1-0.7,0-0.7-0.5v-4.3c0-0.6-0.3-0.9-0.9-0.9h-3.5c-0.7,0-1,0.3-1,1L74.9,21.9z
	 M104.9,24.1v-3c0-0.7-0.3-1-1-1h-3.3c-0.7,0-0.9,0.1-1.1,0.8c-0.1,0.3-0.2,0.3-0.5,0.2L98.5,21c-1.5-0.7-3.2-0.9-4.8-0.6
	c-1.3,0.2-2.6,0.8-3.7,1.6c-1.2,0.8-1.4,2.4-0.6,3.6c0.2,0.3,0.5,0.5,0.8,0.7c0.6,0.4,1.2,0.7,1.8,1c1.2,0.6,2.5,0.8,3.9,0.7
	c1-0.1,2.1-0.4,3-0.9c0.3-0.2,0.5-0.1,0.6,0.3c0.1,0.4,0.5,0.7,0.9,0.7c1.2,0,2.4,0,3.6,0c0.4,0,0.8-0.3,0.9-0.7c0,0,0-0.1,0-0.1
	L104.9,24.1z M51.3,24.1v-3c0-0.7-0.3-1-1-1h-3.4c-0.7,0-1,0.3-1,1v3.8c0,0.3-0.1,0.7-0.5,0.8c-0.5,0.3-1.1,0.2-1.4-0.3
	c-0.1-0.2-0.2-0.4-0.2-0.6c0-1.3,0-2.6,0-3.9c0-0.4-0.3-0.8-0.7-0.9c0,0-0.1,0-0.1,0c-1.3,0-2.5,0-3.7,0c-0.4,0-0.8,0.3-0.8,0.7
	c0,0,0,0,0,0.1c0,1.2,0,2.5,0.1,3.7c0,1.9,1.5,3.5,3.5,3.6c1.1,0.2,2.3-0.1,3.1-0.9c0.3-0.3,0.5-0.3,0.7,0.1c0.2,0.4,0.6,0.7,1,0.6
	h3.5c0.4,0.1,0.9-0.2,0.9-0.7c0-0.1,0-0.1,0-0.2L51.3,24.1z M106.8,24.1c0,1,0,2,0,3c0,0.5,0.3,0.9,0.7,0.9c0.1,0,0.1,0,0.2,0
	c1.2,0,2.4,0,3.6,0c0.4,0.1,0.9-0.2,0.9-0.7c0-0.1,0-0.1,0-0.2v-3.4c0-0.2,0-0.4,0.1-0.5c0.1-0.5,0.5-0.8,1-0.8c0.5,0,0.7,0.4,0.7,1
	v3.7c-0.1,0.4,0.2,0.9,0.7,0.9c0.1,0,0.2,0,0.2,0c1.1,0,2.3,0,3.4,0c0.5,0.1,0.9-0.3,0.9-0.7c0-0.1,0-0.1,0-0.2c0-1,0-2,0-3
	c0-0.5-0.1-1.1-0.3-1.6c-1-2.1-3.6-3-5.7-2c-0.2,0.1-0.3,0.2-0.4,0.2c-0.3,0.2-0.6,0.2-0.8-0.1c-0.2-0.4-0.5-0.6-0.9-0.6h-3.5
	c-0.7,0-1,0.3-1,1L106.8,24.1z"/>
<path class="st1" d="M131.3,24.2c0,0.4,0,0.9,0,1.3c0,0.2-0.1,0.3-0.2,0.5c-0.7,0.5-1.7,0.6-2.5,0.3c-0.8-0.3-1.3-1.1-1.4-1.9
	c0-1.2,1-2.3,2.2-2.4c0.4,0,0.7,0,1.1,0.1c0.8,0.2,0.9,0.4,0.9,1.2L131.3,24.2z"/>
<path class="st1" d="M99.4,24.2c0,0.5,0,0.9,0,1.4c0,0.1-0.1,0.3-0.2,0.4c-0.7,0.6-1.8,0.7-2.6,0.3c-0.9-0.3-1.4-1.2-1.3-2.1
	c0-0.9,0.6-1.7,1.5-2c0.8-0.4,1.8-0.2,2.5,0.3c0.1,0.1,0.2,0.2,0.2,0.4C99.4,23.3,99.4,23.7,99.4,24.2z"/>
</svg>
