<svg id="레이어_1" data-name="레이어 1" xmlns="http://www.w3.org/2000/svg" viewBox="0 0 160 48"><defs><style>.cls-1{fill:#c90915;}</style></defs><title>logo_pc1x</title><path class="cls-1" d="M160.1,23.76A5.6,5.6,0,0,1,156.43,29a27.85,27.85,0,0,1-2.72.71l-19.59,4.87L115,39.36l-24.18,6c-3.41.85-6.83,1.68-10.24,2.56a2.16,2.16,0,0,1-1.13,0l-24.8-6.17-26-6.46c-8.16-2-16.33-4-24.49-6.11A5.24,5.24,0,0,1,.25,25,5.75,5.75,0,0,1,3.33,18.6a8.68,8.68,0,0,1,2.38-.8l18.18-4.36L52.79,6.5,75.61,1l4.22-1a1.14,1.14,0,0,1,.52,0l12,2.87,30.42,7.3,16.66,4q8.13,1.95,16.25,3.9A6.3,6.3,0,0,1,160,22.87ZM136.8,26.4V21.13c0-.69-.3-1-1-1h-3.39c-.63,0-.87.19-1,.79-.06.29-.2.36-.48.25l-.33-.14a7.59,7.59,0,0,0-4.94-.64A9.09,9.09,0,0,0,122,22a2.6,2.6,0,0,0,.2,4.38,10.7,10.7,0,0,0,1.48.82,7.69,7.69,0,0,0,7.15-.12c.36-.19.57-.07.57.34v3.46a.85.85,0,0,1-.46.81,3.33,3.33,0,0,1-1,.34,26.63,26.63,0,0,1-7.46,0c-.46-.06-.74.15-.75.6a.67.67,0,0,0,.67.81c1.39.15,2.78.36,4.18.39a43.47,43.47,0,0,0,9-.78,1.3,1.3,0,0,0,1.23-1.44ZM24.19,21.89v5.23c0,.61.31.9.95.9q1.8,0,3.6,0c.7,0,1-.28,1-1,0-1.36,0-2.72,0-4.08,0-.12.1-.23.15-.35.09.1.19.19.28.3s0,.11,0,.16l1.26,4.47a.57.57,0,0,0,.6.48h4.6c.39,0,.47-.1.37-.46l-1.44-5.39-.73-2.74c-.12-.46-.06-.55.37-.76L36.72,18a.59.59,0,0,0,.43-.67,7.85,7.85,0,0,1,0-1c0-.33-.14-.44-.46-.36a1.33,1.33,0,0,0-.3.11l-5.49,2.12a2.29,2.29,0,0,1-.62.17c-.37.05-.53-.1-.53-.46s0-.79,0-1.18c0-.66-.28-.93-.94-.94H25.15c-.68,0-1,.27-1,.92Zm29.13,2.2v3c0,.65.3.95,1,.95,1.16,0,2.31,0,3.46,0,.67,0,1-.3,1-.95,0-1,0-2.06,0-3.09,0-.34,0-.69,0-1a1,1,0,0,1,.91-1c.55,0,.88.29.88.92,0,1.41,0,2.82,0,4.23a.81.81,0,0,0,.9.89c1.16,0,2.33,0,3.49,0a.8.8,0,0,0,.88-.88c0-1,0-2.07,0-3.11A4.5,4.5,0,0,1,66,22.87a.81.81,0,0,1,1.17-.5.91.91,0,0,1,.43.9v3.87a.8.8,0,0,0,.87.88c1.17,0,2.33,0,3.5,0a.79.79,0,0,0,.88-.86c0-1,0-2,0-3.05a4.45,4.45,0,0,0-.21-1.46,4.22,4.22,0,0,0-4.77-2.42,5.53,5.53,0,0,0-2.37,1.09c-.33.23-.57.23-.78,0A3.7,3.7,0,0,0,61.49,20a4,4,0,0,0-2,.58c-.24.14-.55.24-.72-.06a.69.69,0,0,0-.71-.35c-1.27,0-2.54,0-3.82,0a.8.8,0,0,0-.89.89ZM75,21.91v5.2a.83.83,0,0,0,.92.91q1.8,0,3.6,0a.82.82,0,0,0,.9-.89c0-.73,0-1.46,0-2.19a1.11,1.11,0,0,1,.1-.29.8.8,0,0,1,.22.23c.43.88.85,1.76,1.25,2.64a.8.8,0,0,0,.83.51c1.33,0,2.66,0,4,0,.69,0,.89-.29.63-.9-.63-1.48-1.25-3-1.89-4.44-.12-.28-.12-.48.23-.58s.72-.25,1.08-.37c1.2-.41.94-.32,1-1.36,0-.42-.13-.51-.55-.4l-2.75.74-3.36.9c-.54.14-.74,0-.74-.54V16.74c0-.64-.3-.93-.95-.93h-3.5c-.68,0-1,.29-1,.95Zm30,2.19v-3c0-.73-.28-1-1-1h-3.29c-.73,0-.92.14-1.11.84-.07.25-.22.31-.46.21L98.6,21a7.5,7.5,0,0,0-4.78-.6A8.87,8.87,0,0,0,90.12,22a2.59,2.59,0,0,0,.17,4.34,10.85,10.85,0,0,0,1.78.95,7.34,7.34,0,0,0,3.87.67,7.89,7.89,0,0,0,3-.89c.33-.2.49-.11.58.25a.82.82,0,0,0,.89.69c1.21,0,2.42,0,3.64,0a.8.8,0,0,0,.87-.87Zm-53.57,0v-3c0-.66-.3-.95-1-.95H47c-.72,0-1,.29-1,1v3.78a.87.87,0,0,1-.45.84A1,1,0,0,1,44,24.89c0-1.28,0-2.56,0-3.85a.8.8,0,0,0-.82-.89c-1.25,0-2.5,0-3.74,0a.76.76,0,0,0-.82.75c0,1.22,0,2.45.06,3.67a3.63,3.63,0,0,0,3.45,3.57,3.84,3.84,0,0,0,3.14-.88c.35-.32.49-.29.7.15a1,1,0,0,0,1,.62h3.53a.81.81,0,0,0,.92-.9Zm55.51,0c0,1,0,2,0,3a.83.83,0,0,0,.92.91q1.78,0,3.57,0a.81.81,0,0,0,.92-.9V23.73a3.43,3.43,0,0,1,.06-.55,1,1,0,0,1,1-.84c.48.05.73.38.73,1v3.74a.82.82,0,0,0,.93.93q1.71,0,3.42,0a.83.83,0,0,0,.92-.91c0-1,0-2,0-2.95a4.41,4.41,0,0,0-.26-1.58A4.28,4.28,0,0,0,113,20.81c-.35.24-.64.19-.77-.11a.93.93,0,0,0-.94-.56h-3.49c-.66,0-1,.31-1,.95Z" transform="translate(-0.1)"/><path class="cls-1" d="M131.39,24.22c0,.44,0,.88,0,1.31a.65.65,0,0,1-.24.45,2.46,2.46,0,0,1-2.52.26,2.23,2.23,0,0,1-1.4-1.94,2.33,2.33,0,0,1,2.2-2.36,3.09,3.09,0,0,1,1.05.13c.81.24.92.41.92,1.21Z" transform="translate(-0.1)"/><path class="cls-1" d="M99.52,24.2c0,.46,0,.92,0,1.38a.46.46,0,0,1-.16.35,2.44,2.44,0,0,1-2.64.28,2.13,2.13,0,0,1-1.34-2.14,2.16,2.16,0,0,1,1.47-1.95,2.43,2.43,0,0,1,2.51.34.46.46,0,0,1,.16.35C99.53,23.27,99.52,23.73,99.52,24.2Z" transform="translate(-0.1)"/></svg>