<svg id="레이어_1" data-name="레이어 1" xmlns="http://www.w3.org/2000/svg" viewBox="0 0 74 24"><defs><style>.cls-1{fill:#c90915;}</style></defs><title>mobile_tablet1x</title><path class="cls-1" d="M74,11.88a2.79,2.79,0,0,1-1.7,2.63,8.94,8.94,0,0,1-1.25.36L62,17.31l-8.83,2.37L42,22.69c-1.58.42-3.16.84-4.74,1.28a1,1,0,0,1-.52,0L25.25,20.87l-12-3.23c-3.77-1-7.55-2-11.32-3.06A2.53,2.53,0,0,1,.07,12.52,3,3,0,0,1,1.5,9.3a3.64,3.64,0,0,1,1.1-.4L11,6.72,24.37,3.25,34.93.51l2-.5a.65.65,0,0,1,.24,0l5.55,1.44L56.74,5.1l7.7,2,7.52,2a3.06,3.06,0,0,1,2,2.39C74,11.58,74,11.73,74,11.88ZM63.23,13.2V10.57c0-.35-.14-.5-.48-.5H61.19c-.3,0-.41.1-.47.39s-.09.19-.22.13l-.15-.07a3.26,3.26,0,0,0-2.29-.32,3.94,3.94,0,0,0-1.68.79,1.36,1.36,0,0,0,.09,2.2,6.82,6.82,0,0,0,.68.41,3.32,3.32,0,0,0,3.31-.07c.17-.09.26,0,.26.17v1.74a.44.44,0,0,1-.21.4,1.26,1.26,0,0,1-.44.17,11.4,11.4,0,0,1-3.45,0c-.22,0-.34.07-.35.29s.07.38.31.41c.64.08,1.29.18,1.93.2a18.09,18.09,0,0,0,4.15-.4.63.63,0,0,0,.57-.71ZM11.14,10.94v2.62c0,.3.15.45.44.45h1.67c.32,0,.46-.14.46-.48v-2c0-.05,0-.11.07-.17l.13.15s0,0,0,.08c.2.75.39,1.49.59,2.23,0,.16.11.25.27.25h2.13c.18,0,.22,0,.17-.23l-.66-2.69c-.12-.46-.23-.92-.34-1.38-.06-.22,0-.27.17-.37L16.94,9a.3.3,0,0,0,.2-.33,4,4,0,0,1,0-.49c0-.17-.06-.22-.21-.18l-.14,0L14.24,9.11a1.47,1.47,0,0,1-.28.08c-.17,0-.25,0-.25-.23V8.37c0-.33-.13-.47-.44-.47H11.59c-.32,0-.45.14-.45.46ZM24.62,12v1.49c0,.33.14.48.45.48h1.6c.31,0,.45-.15.45-.48V12c0-.17,0-.35,0-.52a.51.51,0,0,1,.42-.48c.26,0,.41.14.41.46,0,.71,0,1.41,0,2.11a.39.39,0,0,0,.42.45H30a.39.39,0,0,0,.4-.44c0-.52,0-1,0-1.56a2.87,2.87,0,0,1,.07-.58.37.37,0,0,1,.54-.24.44.44,0,0,1,.2.44v1.94c0,.28.14.44.41.44h1.61a.38.38,0,0,0,.41-.43c0-.51,0-1,0-1.52a2.19,2.19,0,0,0-.1-.73,1.9,1.9,0,0,0-2.2-1.21,2.52,2.52,0,0,0-1.1.54c-.15.12-.26.12-.36,0A1.68,1.68,0,0,0,28.39,10a1.73,1.73,0,0,0-.93.29c-.12.07-.26.12-.34,0a.32.32,0,0,0-.33-.18H25a.4.4,0,0,0-.41.45Zm10-1.08v2.59a.4.4,0,0,0,.43.46h1.66a.4.4,0,0,0,.42-.45V12.47a.44.44,0,0,1,0-.15s.08.07.1.12c.2.44.39.88.58,1.32a.37.37,0,0,0,.38.26h1.85c.31,0,.41-.14.29-.45l-.87-2.22c-.06-.14-.06-.24.1-.29s.33-.13.5-.19c.55-.2.44-.16.44-.68,0-.21,0-.25-.25-.19L39,10.36l-1.56.44c-.25.07-.34,0-.34-.26V8.37c0-.32-.14-.47-.44-.47H35.07c-.31,0-.45.15-.45.48Zm13.87,1.09V10.58c0-.37-.13-.51-.48-.51H46.49c-.34,0-.42.07-.51.42,0,.12-.1.16-.21.11l-.21-.11a3.32,3.32,0,0,0-2.21-.3,4,4,0,0,0-1.71.81,1.35,1.35,0,0,0,.08,2.17,4.19,4.19,0,0,0,.82.48,3.18,3.18,0,0,0,1.79.34,3.45,3.45,0,0,0,1.39-.45c.15-.1.23-.06.27.12a.39.39,0,0,0,.41.35h1.68a.39.39,0,0,0,.41-.44Zm-24.78,0V10.54c0-.33-.14-.47-.46-.47H21.69c-.33,0-.47.15-.47.5v1.89a.44.44,0,0,1-.21.41.47.47,0,0,1-.72-.42V10.52a.39.39,0,0,0-.38-.45H18.18a.37.37,0,0,0-.38.38c0,.61,0,1.23,0,1.83a1.75,1.75,0,0,0,1.59,1.79,1.65,1.65,0,0,0,1.45-.44c.17-.16.23-.14.33.07a.45.45,0,0,0,.45.31h1.63a.4.4,0,0,0,.43-.45Zm25.67,0v1.53a.4.4,0,0,0,.43.45h1.65a.4.4,0,0,0,.43-.45v-1.7a2.45,2.45,0,0,1,0-.27.46.46,0,0,1,.49-.42c.22,0,.34.19.34.51v1.87c0,.3.14.46.42.46h1.59c.28,0,.42-.16.42-.46,0-.49,0-1,0-1.47a2.61,2.61,0,0,0-.12-.79,1.85,1.85,0,0,0-2-1.18,1.63,1.63,0,0,0-.78.3c-.16.11-.29.09-.36-.06a.42.42,0,0,0-.43-.28H49.83c-.31,0-.45.16-.45.47Z" transform="translate(0 0)"/><path class="cls-1" d="M60.72,12.11c0,.22,0,.44,0,.66a.39.39,0,0,1-.11.22,1.07,1.07,0,0,1-1.17.13A1.13,1.13,0,0,1,59.81,11a1.35,1.35,0,0,1,.49.06c.37.12.42.21.42.61Z" transform="translate(0 0)"/><path class="cls-1" d="M46,12.1c0,.23,0,.46,0,.69a.29.29,0,0,1-.07.18,1.07,1.07,0,0,1-1.23.13,1.13,1.13,0,1,1,1.23-1.87.25.25,0,0,1,.07.18C46,11.64,46,11.87,46,12.1Z" transform="translate(0 0)"/></svg>