<svg id="레이어_1" data-name="레이어 1" xmlns="http://www.w3.org/2000/svg" viewBox="0 0 140 42"><defs><style>.cls-1{fill:#c90915;}</style></defs><title>logo_tablet1x</title><path class="cls-1" d="M140,20.79a4.89,4.89,0,0,1-3.21,4.61,23.06,23.06,0,0,1-2.38.62l-17.14,4.26-16.69,4.16L79.42,39.71c-3,.74-6,1.47-9,2.23a1.84,1.84,0,0,1-1,0l-21.7-5.4L25,30.87c-7.15-1.78-14.29-3.54-21.43-5.35A4.58,4.58,0,0,1,.14,21.9a5,5,0,0,1,2.69-5.62,7.4,7.4,0,0,1,2.08-.7l15.91-3.82L46.11,5.69,66.07.9C67.3.61,68.53.31,69.77,0a.86.86,0,0,1,.45,0l10.5,2.51,26.62,6.39,14.58,3.49c4.74,1.14,9.48,2.27,14.22,3.42A5.47,5.47,0,0,1,139.92,20C140,20.27,140,20.53,140,20.79ZM119.62,23.1V18.49c0-.61-.27-.86-.9-.87h-3c-.56,0-.76.17-.88.69-.06.26-.18.32-.43.22a2.36,2.36,0,0,1-.28-.12,6.6,6.6,0,0,0-4.33-.56,7.84,7.84,0,0,0-3.18,1.39,2.28,2.28,0,0,0,.17,3.84,10.26,10.26,0,0,0,1.3.72,6.74,6.74,0,0,0,6.25-.11c.32-.17.5-.06.5.29v3a.74.74,0,0,1-.4.71,2.81,2.81,0,0,1-.84.3,23.42,23.42,0,0,1-6.53,0c-.4-.05-.64.13-.66.52s.15.66.59.71c1.22.14,2.44.31,3.66.35a37.49,37.49,0,0,0,7.84-.69,1.14,1.14,0,0,0,1.08-1.25Zm-98.54-4v4.58c0,.53.27.79.83.79h3.15c.62,0,.87-.25.87-.85,0-1.19,0-2.38,0-3.57a.76.76,0,0,1,.13-.31c.08.09.17.17.24.26a.66.66,0,0,1,.05.15c.37,1.3.74,2.6,1.1,3.91a.5.5,0,0,0,.52.42h4c.34,0,.41-.09.33-.41L31.08,19.4c-.22-.8-.43-1.6-.64-2.4-.11-.4-.06-.48.32-.66l1.29-.61a.51.51,0,0,0,.37-.58c0-.28,0-.57,0-.85s-.12-.38-.4-.32a1.48,1.48,0,0,0-.27.1l-4.8,1.86a2.44,2.44,0,0,1-.53.14c-.33,0-.47-.08-.47-.4s0-.69,0-1c0-.58-.24-.82-.83-.82H21.92c-.59,0-.84.23-.84.8Zm25.49,1.93v2.6c0,.58.27.84.85.84h3c.59,0,.86-.27.86-.84V21c0-.31,0-.61,0-.91a.91.91,0,0,1,.8-.85c.48,0,.77.25.77.81,0,1.23,0,2.46,0,3.7a.72.72,0,0,0,.79.78q1.53,0,3.06,0a.7.7,0,0,0,.76-.77c0-.91,0-1.82,0-2.73a3.78,3.78,0,0,1,.13-1,.7.7,0,0,1,1-.43.79.79,0,0,1,.38.78c0,1.13,0,2.26,0,3.39a.7.7,0,0,0,.76.77q1.53,0,3.06,0a.71.71,0,0,0,.78-.76c0-.88,0-1.77,0-2.66a3.64,3.64,0,0,0-.18-1.28,3.69,3.69,0,0,0-4.18-2.12,5,5,0,0,0-2.07.95c-.29.21-.49.21-.68,0a3.24,3.24,0,0,0-2.81-1.15,3.53,3.53,0,0,0-1.78.51c-.21.13-.48.21-.63,0a.61.61,0,0,0-.62-.31H47.35a.7.7,0,0,0-.78.78ZM65.5,19.17v4.55a.72.72,0,0,0,.8.8c1.06,0,2.11,0,3.16,0a.72.72,0,0,0,.78-.79c0-.63,0-1.27,0-1.9a.8.8,0,0,1,.09-.26.72.72,0,0,1,.19.2c.37.77.74,1.54,1.1,2.31a.68.68,0,0,0,.72.45c1.16,0,2.33,0,3.49,0,.6,0,.77-.25.55-.79l-1.65-3.88c-.1-.25-.11-.42.2-.51s.63-.22.94-.33c1.05-.35.83-.28.84-1.19,0-.37-.11-.44-.48-.34l-2.4.64-3,.79c-.47.12-.64,0-.64-.47,0-1.26,0-2.53,0-3.79,0-.56-.26-.82-.83-.82H66.35c-.59,0-.85.25-.85.83Zm26.23,1.91V18.51c0-.64-.24-.88-.9-.89H88c-.64,0-.81.12-1,.74-.06.22-.19.27-.39.18l-.4-.18A6.61,6.61,0,0,0,82,17.84a7.81,7.81,0,0,0-3.24,1.42,2.26,2.26,0,0,0,.15,3.79,9.29,9.29,0,0,0,1.55.84,6.6,6.6,0,0,0,3.4.59,6.92,6.92,0,0,0,2.63-.79c.29-.17.42-.09.5.22a.73.73,0,0,0,.78.61q1.59,0,3.18,0a.7.7,0,0,0,.77-.77Zm-46.88,0V18.45c0-.57-.25-.82-.86-.83H41c-.63,0-.89.26-.89.87V21.8a.74.74,0,0,1-.4.73.89.89,0,0,1-1.35-.75c0-1.12,0-2.24,0-3.37a.7.7,0,0,0-.71-.78H34.39a.66.66,0,0,0-.71.66c0,1.07,0,2.14,0,3.21a3.17,3.17,0,0,0,3,3.12,3.33,3.33,0,0,0,2.75-.77c.31-.28.43-.25.61.13a.88.88,0,0,0,.86.54c1,0,2.06,0,3.09,0a.71.71,0,0,0,.8-.79C44.86,22.85,44.85,22,44.85,21.09Zm48.58,0c0,.89,0,1.78,0,2.66a.72.72,0,0,0,.8.8c1,0,2.08,0,3.12,0a.72.72,0,0,0,.81-.79c0-1,0-2,0-3a2,2,0,0,1,0-.48.84.84,0,0,1,.91-.73c.43,0,.64.33.64.88v3.28a.72.72,0,0,0,.81.81q1.5,0,3,0a.72.72,0,0,0,.8-.8c0-.86,0-1.72,0-2.58a3.86,3.86,0,0,0-.22-1.39,3.56,3.56,0,0,0-3.85-2.06,3.41,3.41,0,0,0-1.48.52c-.31.21-.56.16-.68-.1a.81.81,0,0,0-.82-.49H94.26a.72.72,0,0,0-.83.82C93.42,19.32,93.43,20.19,93.43,21.06Z" transform="translate(0)"/><path class="cls-1" d="M114.88,21.19c0,.38,0,.77,0,1.15a.57.57,0,0,1-.2.39,2.15,2.15,0,0,1-2.21.23,2,2,0,0,1-1.23-1.69,2,2,0,0,1,1.93-2.07,2.59,2.59,0,0,1,.92.11c.7.21.8.36.8,1.06Z" transform="translate(0)"/><path class="cls-1" d="M87,21.17c0,.4,0,.81,0,1.21a.47.47,0,0,1-.14.31,2.14,2.14,0,0,1-2.31.24,1.84,1.84,0,0,1-1.17-1.87,1.89,1.89,0,0,1,1.28-1.71,2.14,2.14,0,0,1,2.2.3A.47.47,0,0,1,87,20C87,20.36,87,20.77,87,21.17Z" transform="translate(0)"/></svg>