<svg id="레이어_1" data-name="레이어 1" xmlns="http://www.w3.org/2000/svg" viewBox="0 0 40 40"><defs><style>.cls-1{fill:#595959;}.cls-2{fill:#ccc;}</style></defs><title>icon_sns_grey_insta</title><rect class="cls-1" width="40" height="40" rx="16" ry="16"/><path class="cls-2" d="M24.9,8.42H14.75a6.92,6.92,0,0,0-6.92,6.93V25.49a6.92,6.92,0,0,0,6.92,6.93H24.9a6.93,6.93,0,0,0,6.93-6.93V15.35A6.93,6.93,0,0,0,24.9,8.42m4.72,17.25a4.6,4.6,0,0,1-4.6,4.6H14.63a4.61,4.61,0,0,1-4.6-4.6V15.29a4.61,4.61,0,0,1,4.6-4.6H25a4.6,4.6,0,0,1,4.6,4.6Z" transform="translate(0)"/><path class="cls-2" d="M19.83,14.25a6.23,6.23,0,1,0,6.22,6.23,6.23,6.23,0,0,0-6.22-6.23m0,10.27a4,4,0,1,1,4-4,4,4,0,0,1-4,4" transform="translate(0)"/><path class="cls-2" d="M26.26,12.57A1.45,1.45,0,1,0,27.71,14a1.45,1.45,0,0,0-1.45-1.45" transform="translate(0)"/></svg>