<svg id="레이어_1" data-name="레이어 1" xmlns="http://www.w3.org/2000/svg" viewBox="0 0 40 40"><defs><style>.cls-1{fill:#e5e5e5;}.cls-2{fill:#333;}</style></defs><title>icon_sns_white_youtube</title><rect class="cls-1" width="40" height="40" rx="16" ry="16"/><path class="cls-2" d="M20,28.4c-1.24,0-2.48,0-3.73-.07-1.4,0-2.81-.12-4.22-.23a6.71,6.71,0,0,1-1.61-.28,2.93,2.93,0,0,1-2-2.41,18.29,18.29,0,0,1-.33-2.86C8,21.35,8,20.15,8,19a22.84,22.84,0,0,1,.42-4.52A3,3,0,0,1,11.05,12c1-.13,2.11-.21,3.16-.27s2.18-.09,3.27-.11c1.6,0,3.21,0,4.81,0s2.94.08,4.41.16a19.37,19.37,0,0,1,2.4.27,2.86,2.86,0,0,1,2.45,2.37,19.08,19.08,0,0,1,.33,2.49q.12,1.7.12,3.39a30.34,30.34,0,0,1-.31,4.57,4.54,4.54,0,0,1-.43,1.53A2.9,2.9,0,0,1,29,28c-1,.13-2.05.22-3.08.28s-2.24.08-3.37.11c-.84,0-1.68,0-2.52,0Zm-2.37-4.82L23.83,20,17.61,16.4Z"/></svg>