<svg id="레이어_2_사본" data-name="레이어 2 사본" xmlns="http://www.w3.org/2000/svg" viewBox="0 0 1920 1080"><defs><style>.cls-1{fill:none;}.cls-2{fill:#e5d8d3;}</style></defs><title>bg_pattern</title><path class="cls-1" d="M320.35.21l63.57,214.23a16.64,16.64,0,0,0,31.81,0L479.31.21,479.24,0H320.41Z"/><path class="cls-1" d="M1519.84,313.63a16.21,16.21,0,0,0-15.9,11.75l-63.58,214.23,63.58,214.23a16.63,16.63,0,0,0,31.8,0l63.58-214.23-63.58-214.23A16.22,16.22,0,0,0,1519.84,313.63Z"/><path class="cls-1" d="M1614.17,1029a17.8,17.8,0,0,1-28.66,0l14.33,48.3Z"/><path class="cls-1" d="M399.83,227.2a17.27,17.27,0,0,1-14.23-7.1l14.23,48,14.23-48A17.28,17.28,0,0,1,399.83,227.2Z"/><path class="cls-1" d="M545.5,859.26a17.8,17.8,0,0,1,28.66,0L559.83,811Z"/><path class="cls-1" d="M479.83,583.22A16.23,16.23,0,0,0,463.92,595L400.35,809.2l63.57,214.23a16.64,16.64,0,0,0,31.81,0L559.31,809.2,495.73,595A16.21,16.21,0,0,0,479.83,583.22Z"/><path class="cls-1" d="M639.83,582.22a17.28,17.28,0,0,1,14.23,7.1l-14.23-48-14.23,48A17.28,17.28,0,0,1,639.83,582.22Z"/><path class="cls-1" d="M1519.84,312.63a17.28,17.28,0,0,1,14.33,7.23l-14.33-48.3-14.33,48.3A17.25,17.25,0,0,1,1519.84,312.63Z"/><path class="cls-1" d="M959.83,1036.19h0A17.26,17.26,0,0,1,945.5,1029l14.33,48.3,14.34-48.3A17.28,17.28,0,0,1,959.83,1036.19Z"/><path class="cls-1" d="M1519.84,227.2h0a17.28,17.28,0,0,1-14.23-7.1l14.23,48,14.23-48A17.28,17.28,0,0,1,1519.84,227.2Z"/><path class="cls-1" d="M1599.84,1035.19a16.22,16.22,0,0,0,15.9-11.76l63.58-214.23L1615.74,595a16.63,16.63,0,0,0-31.8,0L1520.36,809.2l63.58,214.23A16.22,16.22,0,0,0,1599.84,1035.19Z"/><path class="cls-1" d="M799.83,1036.19A17.26,17.26,0,0,1,785.5,1029l14.33,48.3,14.33-48.3A17.25,17.25,0,0,1,799.83,1036.19Z"/><path class="cls-1" d="M1119.83,1036.19a17.26,17.26,0,0,1-14.33-7.24l14.33,48.3,14.34-48.3A17.27,17.27,0,0,1,1119.83,1036.19Z"/><path class="cls-1" d="M1279.84,1036.19a17.27,17.27,0,0,1-14.34-7.24l14.34,48.3,14.33-48.3A17.26,17.26,0,0,1,1279.84,1036.19Z"/><path class="cls-1" d="M1599.84,495.79a16.2,16.2,0,0,0,15.9-11.76l63.58-214.22L1615.74,55.58a16.63,16.63,0,0,0-31.8,0l-63.58,214.23L1583.94,484A16.21,16.21,0,0,0,1599.84,495.79Z"/><path class="cls-1" d="M1599.84,42.82a17.28,17.28,0,0,1,14.23,7.1L1599.84,2l-14.23,48A17.28,17.28,0,0,1,1599.84,42.82Z"/><path class="cls-1" d="M1439.84,1036.19h0a17.25,17.25,0,0,1-14.33-7.24l14.33,48.3,14.33-48.3A17.26,17.26,0,0,1,1439.84,1036.19Z"/><path class="cls-1" d="M1503.94,214.44a16.63,16.63,0,0,0,31.8,0L1599.32.21l-.06-.21H1440.42l-.06.21Z"/><path class="cls-1" d="M1599.84,582.22a17.28,17.28,0,0,1,14.23,7.1l-14.23-48-14.23,47.94A17.3,17.3,0,0,1,1599.84,582.22Z"/><path class="cls-1" d="M1614.17,489.56a17.82,17.82,0,0,1-28.66,0l14.33,48.29Z"/><path class="cls-1" d="M559.83,766.59a17.28,17.28,0,0,1-14.23-7.09l14.23,48,14.23-48A17.28,17.28,0,0,1,559.83,766.59Z"/><path class="cls-1" d="M1519.84,852a17.26,17.26,0,0,1,14.33,7.24L1519.84,811l-14.33,48.29A17.28,17.28,0,0,1,1519.84,852Z"/><path class="cls-1" d="M639.83,1036.19A17.25,17.25,0,0,1,625.5,1029l14.33,48.3,14.33-48.3A17.26,17.26,0,0,1,639.83,1036.19Z"/><path class="cls-1" d="M1519.84,766.59h0a17.28,17.28,0,0,1-14.23-7.09l14.23,48,14.23-48A17.28,17.28,0,0,1,1519.84,766.59Z"/><path class="cls-1" d="M1279.84,42.82a17.28,17.28,0,0,1,14.23,7.1L1279.84,2l-14.23,48A17.27,17.27,0,0,1,1279.84,42.82Z"/><path class="cls-1" d="M1279.84,495.79a16.21,16.21,0,0,0,15.9-11.76l63.58-214.22L1295.74,55.58a16.64,16.64,0,0,0-31.81,0l-63.57,214.23L1263.93,484A16.22,16.22,0,0,0,1279.84,495.79Z"/><path class="cls-1" d="M719.83,227.2a17.28,17.28,0,0,1-14.23-7.1l14.23,48,14.23-48A17.28,17.28,0,0,1,719.83,227.2Z"/><path class="cls-1" d="M1119.83,583.22a16.21,16.21,0,0,0-15.9,11.76L1040.36,809.2l63.57,214.23a16.64,16.64,0,0,0,31.81,0l63.57-214.23L1135.74,595A16.22,16.22,0,0,0,1119.83,583.22Z"/><path class="cls-1" d="M639.83,43.82a16.22,16.22,0,0,0-15.9,11.76L560.35,269.81,623.93,484a16.63,16.63,0,0,0,31.8,0l63.58-214.22L655.73,55.58A16.22,16.22,0,0,0,639.83,43.82Z"/><path class="cls-1" d="M959.83,583.22A16.21,16.21,0,0,0,943.93,595L880.35,809.2l63.58,214.23a16.64,16.64,0,0,0,31.81,0l63.57-214.23L975.74,595A16.22,16.22,0,0,0,959.83,583.22Z"/><path class="cls-1" d="M1214.07,220.1a17.81,17.81,0,0,1-28.46,0l14.23,48Z"/><path class="cls-1" d="M1199.84,766.59a17.26,17.26,0,0,1-14.23-7.09l14.23,48,14.22-48A17.24,17.24,0,0,1,1199.84,766.59Z"/><path class="cls-1" d="M959.83,42.82a17.27,17.27,0,0,1,14.23,7.1L959.83,2l-14.23,48A17.28,17.28,0,0,1,959.83,42.82Z"/><path class="cls-1" d="M1199.83,313.63a16.22,16.22,0,0,0-15.9,11.75l-63.57,214.23,63.57,214.23a16.64,16.64,0,0,0,31.81,0l63.58-214.23-63.58-214.23A16.22,16.22,0,0,0,1199.83,313.63Z"/><path class="cls-1" d="M894.06,220.1a17.81,17.81,0,0,1-28.46,0l14.23,48Z"/><path class="cls-1" d="M1054.06,220.1a17.81,17.81,0,0,1-28.46,0l14.23,48Z"/><path class="cls-1" d="M705.5,319.86a17.82,17.82,0,0,1,28.66,0l-14.33-48.3Z"/><path class="cls-1" d="M1119.83,42.82a17.26,17.26,0,0,1,14.23,7.1L1119.83,2l-14.22,48A17.25,17.25,0,0,1,1119.83,42.82Z"/><path class="cls-1" d="M799.83,42.82a17.28,17.28,0,0,1,14.23,7.1L799.83,2l-14.23,48A17.28,17.28,0,0,1,799.83,42.82Z"/><path class="cls-1" d="M1199.83,312.63a17.28,17.28,0,0,1,14.34,7.23l-14.33-48.3-14.34,48.3A17.28,17.28,0,0,1,1199.83,312.63Z"/><path class="cls-1" d="M865.5,319.86a17.82,17.82,0,0,1,28.66,0l-14.33-48.3Z"/><path class="cls-1" d="M879.83,766.59a17.28,17.28,0,0,1-14.23-7.09l14.23,48,14.23-48A17.28,17.28,0,0,1,879.83,766.59Z"/><path class="cls-1" d="M799.83,43.82a16.22,16.22,0,0,0-15.9,11.76L720.35,269.81,783.93,484a16.63,16.63,0,0,0,31.8,0l63.58-214.22L815.73,55.58A16.22,16.22,0,0,0,799.83,43.82Z"/><path class="cls-1" d="M959.83,582.22a17.27,17.27,0,0,1,14.23,7.1l-14.23-48-14.23,48A17.28,17.28,0,0,1,959.83,582.22Z"/><path class="cls-1" d="M1039.83,312.63a17.28,17.28,0,0,1,14.34,7.23l-14.34-48.3-14.33,48.3A17.28,17.28,0,0,1,1039.83,312.63Z"/><path class="cls-1" d="M1119.83,582.22a17.26,17.26,0,0,1,14.23,7.1l-14.23-48-14.22,48A17.25,17.25,0,0,1,1119.83,582.22Z"/><path class="cls-1" d="M1119.83,495.79A16.22,16.22,0,0,0,1135.74,484l63.57-214.22L1135.74,55.58a16.64,16.64,0,0,0-31.81,0l-63.57,214.23L1103.93,484A16.21,16.21,0,0,0,1119.83,495.79Z"/><path class="cls-1" d="M1039.83,766.59a17.28,17.28,0,0,1-14.23-7.09l14.23,48,14.23-48A17.26,17.26,0,0,1,1039.83,766.59Z"/><path class="cls-1" d="M1039.83,765.59a16.22,16.22,0,0,0,15.91-11.75l63.57-214.23-63.57-214.23a16.64,16.64,0,0,0-31.81,0L960.35,539.61l63.58,214.23A16.22,16.22,0,0,0,1039.83,765.59Z"/><path class="cls-1" d="M959.83,496.79a17.28,17.28,0,0,1-14.33-7.23l14.33,48.29,14.34-48.29A17.28,17.28,0,0,1,959.83,496.79Z"/><path class="cls-1" d="M799.83,583.22A16.21,16.21,0,0,0,783.93,595L720.35,809.2l63.58,214.23a16.63,16.63,0,0,0,31.8,0L879.31,809.2,815.73,595A16.2,16.2,0,0,0,799.83,583.22Z"/><path class="cls-1" d="M1294.17,489.56a17.83,17.83,0,0,1-28.67,0l14.34,48.29Z"/><path class="cls-1" d="M959.83,495.79A16.22,16.22,0,0,0,975.74,484l63.57-214.22L975.74,55.58a16.64,16.64,0,0,0-31.81,0L880.35,269.81,943.93,484A16.21,16.21,0,0,0,959.83,495.79Z"/><path class="cls-1" d="M1279.84,1035.19a16.22,16.22,0,0,0,15.9-11.76l63.58-214.23L1295.74,595a16.64,16.64,0,0,0-31.81,0L1200.36,809.2l63.57,214.23A16.23,16.23,0,0,0,1279.84,1035.19Z"/><path class="cls-1" d="M705.5,859.26a17.8,17.8,0,0,1,28.66,0L719.83,811Z"/><path class="cls-1" d="M1359.84,312.63a17.28,17.28,0,0,1,14.33,7.23l-14.33-48.3-14.33,48.3A17.26,17.26,0,0,1,1359.84,312.63Z"/><path class="cls-1" d="M1359.84,766.59a17.28,17.28,0,0,1-14.23-7.09l14.23,48,14.23-48A17.28,17.28,0,0,1,1359.84,766.59Z"/><path class="cls-1" d="M1343.93,214.44a16.64,16.64,0,0,0,31.81,0L1439.32.21l-.07-.21H1280.42l-.06.21Z"/><path class="cls-1" d="M1183.93,214.44a16.64,16.64,0,0,0,31.81,0L1279.32.21l-.07-.21H1120.42l-.06.21Z"/><path class="cls-1" d="M1359.84,313.63a16.22,16.22,0,0,0-15.91,11.75l-63.57,214.23,63.57,214.23a16.64,16.64,0,0,0,31.81,0l63.58-214.23-63.58-214.23A16.22,16.22,0,0,0,1359.84,313.63Z"/><path class="cls-1" d="M480.35.21l63.57,214.23a16.64,16.64,0,0,0,31.81,0L639.31.21,639.24,0H480.41Z"/><path class="cls-1" d="M559.83,227.2a17.28,17.28,0,0,1-14.23-7.1l14.23,48,14.23-48A17.28,17.28,0,0,1,559.83,227.2Z"/><path class="cls-1" d="M1359.84,227.2a17.28,17.28,0,0,1-14.23-7.1l14.23,48,14.23-48A17.28,17.28,0,0,1,1359.84,227.2Z"/><path class="cls-1" d="M639.83,496.79a17.26,17.26,0,0,1-14.33-7.23l14.33,48.29,14.33-48.29A17.28,17.28,0,0,1,639.83,496.79Z"/><path class="cls-1" d="M479.83,43.82a16.24,16.24,0,0,0-15.91,11.76L400.35,269.81,463.92,484a16.64,16.64,0,0,0,31.81,0l63.58-214.22L495.73,55.58A16.22,16.22,0,0,0,479.83,43.82Z"/><path class="cls-1" d="M719.83,766.59a17.28,17.28,0,0,1-14.23-7.09l14.23,48,14.23-48A17.28,17.28,0,0,1,719.83,766.59Z"/><path class="cls-1" d="M639.83,42.82a17.28,17.28,0,0,1,14.23,7.1L639.83,2l-14.23,48A17.28,17.28,0,0,1,639.83,42.82Z"/><path class="cls-1" d="M863.93,214.44a16.64,16.64,0,0,0,31.81,0L959.31.21,959.25,0H800.42l-.07.21Z"/><path class="cls-1" d="M703.93,214.44a16.63,16.63,0,0,0,31.8,0L799.31.21,799.25,0H640.41l-.06.21Z"/><path class="cls-1" d="M1023.93,214.44a16.64,16.64,0,0,0,31.81,0L1119.31.21l-.06-.21H960.42l-.07.21Z"/><path class="cls-1" d="M545.5,319.86a17.82,17.82,0,0,1,28.66,0l-14.33-48.3Z"/><path class="cls-1" d="M719.83,765.59a16.22,16.22,0,0,0,15.9-11.75l63.58-214.23L735.73,325.38a16.63,16.63,0,0,0-31.8,0L640.35,539.61l63.58,214.23A16.22,16.22,0,0,0,719.83,765.59Z"/><path class="cls-1" d="M799.83,582.22a17.28,17.28,0,0,1,14.23,7.1l-14.23-48-14.23,48A17.28,17.28,0,0,1,799.83,582.22Z"/><path class="cls-1" d="M1359.84,852a17.26,17.26,0,0,1,14.33,7.24L1359.84,811l-14.33,48.3A17.25,17.25,0,0,1,1359.84,852Z"/><path class="cls-1" d="M1439.84,1035.19a16.22,16.22,0,0,0,15.9-11.76l63.58-214.23L1455.74,595a16.64,16.64,0,0,0-31.81,0L1360.36,809.2l63.58,214.23A16.22,16.22,0,0,0,1439.84,1035.19Z"/><path class="cls-1" d="M1185.5,859.26a17.81,17.81,0,0,1,28.67,0L1199.84,811Z"/><path class="cls-1" d="M799.83,496.79a17.28,17.28,0,0,1-14.33-7.23l14.33,48.29,14.33-48.29A17.26,17.26,0,0,1,799.83,496.79Z"/><path class="cls-1" d="M639.83,583.22A16.2,16.2,0,0,0,623.93,595L560.35,809.2l63.58,214.23a16.63,16.63,0,0,0,31.8,0L719.31,809.2,655.73,595A16.21,16.21,0,0,0,639.83,583.22Z"/><path class="cls-1" d="M879.83,765.59a16.23,16.23,0,0,0,15.91-11.75l63.57-214.23L895.74,325.38a16.64,16.64,0,0,0-31.81,0L800.35,539.61l63.58,214.23A16.22,16.22,0,0,0,879.83,765.59Z"/><path class="cls-1" d="M1439.84,42.82a17.28,17.28,0,0,1,14.23,7.1L1439.84,2l-14.23,48A17.28,17.28,0,0,1,1439.84,42.82Z"/><path class="cls-1" d="M865.5,859.26a17.8,17.8,0,0,1,28.66,0L879.83,811Z"/><path class="cls-1" d="M1025.5,859.26a17.81,17.81,0,0,1,28.67,0L1039.83,811Z"/><path class="cls-1" d="M1454.17,489.56a17.28,17.28,0,0,1-14.33,7.23h0a17.26,17.26,0,0,1-14.33-7.23l14.33,48.29Z"/><path class="cls-1" d="M1439.84,582.22a17.28,17.28,0,0,1,14.23,7.1l-14.23-48-14.23,47.94A17.3,17.3,0,0,1,1439.84,582.22Z"/><path class="cls-1" d="M1439.84,495.79a16.21,16.21,0,0,0,15.9-11.76l63.58-214.22L1455.74,55.58a16.64,16.64,0,0,0-31.81,0l-63.57,214.23L1423.94,484A16.22,16.22,0,0,0,1439.84,495.79Z"/><path class="cls-1" d="M1279.84,582.22a17.28,17.28,0,0,1,14.23,7.1l-14.23-48-14.23,48A17.27,17.27,0,0,1,1279.84,582.22Z"/><path class="cls-1" d="M1839.84,852a17.26,17.26,0,0,1,14.33,7.23L1839.84,811l-14.33,48.3A17.26,17.26,0,0,1,1839.84,852Z"/><path class="cls-1" d="M1679.84,853a16.22,16.22,0,0,0-15.9,11.76L1600.36,1079l.3,1H1759l.29-1-63.57-214.23A16.24,16.24,0,0,0,1679.84,853Z"/><path class="cls-1" d="M319.83,1036.19a17.27,17.27,0,0,1-14.34-7.24l14.34,48.3,14.33-48.3A17.26,17.26,0,0,1,319.83,1036.19Z"/><path class="cls-1" d="M319.83,496.79a17.28,17.28,0,0,1-14.34-7.23l14.34,48.29,14.33-48.29A17.28,17.28,0,0,1,319.83,496.79Z"/><path class="cls-1" d="M1759.84,42.82a17.28,17.28,0,0,1,14.23,7.1L1759.84,2l-14.23,48A17.28,17.28,0,0,1,1759.84,42.82Z"/><path class="cls-1" d="M1535.74,864.78a16.63,16.63,0,0,0-31.8,0L1440.36,1079l.29,1H1599l.3-1Z"/><path class="cls-1" d="M239.82,227.2a17.25,17.25,0,0,1-14.22-7.1l14.22,48,14.23-48A17.26,17.26,0,0,1,239.82,227.2Z"/><path class="cls-1" d="M1679.84,313.63a16.22,16.22,0,0,0-15.9,11.75l-63.58,214.23,63.58,214.23a16.64,16.64,0,0,0,31.81,0l63.57-214.23-63.57-214.23A16.23,16.23,0,0,0,1679.84,313.63Z"/><path class="cls-1" d="M1679.84,766.59a17.28,17.28,0,0,1-14.23-7.09l14.23,48,14.23-48A17.28,17.28,0,0,1,1679.84,766.59Z"/><path class="cls-1" d="M1679.84,852a17.25,17.25,0,0,1,14.33,7.24L1679.84,811l-14.33,48.29A17.28,17.28,0,0,1,1679.84,852Z"/><path class="cls-1" d="M160.35.21l63.57,214.23a16.64,16.64,0,0,0,31.81,0L319.3.21,319.24,0H160.41Z"/><path class="cls-1" d="M1759.84,1035.19a16.24,16.24,0,0,0,15.91-11.76l63.57-214.23L1775.75,595a16.64,16.64,0,0,0-31.81,0L1680.36,809.2l63.58,214.23A16.22,16.22,0,0,0,1759.84,1035.19Z"/><path class="cls-1" d="M1759.84,582.22a17.28,17.28,0,0,1,14.23,7.1l-14.23-48-14.23,47.94A17.28,17.28,0,0,1,1759.84,582.22Z"/><path class="cls-1" d="M1679.84,312.63a17.26,17.26,0,0,1,14.33,7.23l-14.33-48.3-14.33,48.3A17.25,17.25,0,0,1,1679.84,312.63Z"/><path class="cls-1" d="M1774.18,1029a17.81,17.81,0,0,1-28.67,0l14.33,48.3Z"/><path class="cls-1" d="M399.83,765.59a16.22,16.22,0,0,0,15.9-11.75l63.58-214.23L415.73,325.38a16.64,16.64,0,0,0-31.81,0L320.35,539.61l63.57,214.23A16.22,16.22,0,0,0,399.83,765.59Z"/><path class="cls-1" d="M1215.74,864.78a16.64,16.64,0,0,0-31.81,0L1120.36,1079l.29,1H1279l.3-1Z"/><path class="cls-1" d="M1759.84,495.79A16.23,16.23,0,0,0,1775.75,484l63.57-214.22L1775.75,55.58a16.64,16.64,0,0,0-31.81,0l-63.58,214.23L1743.94,484A16.21,16.21,0,0,0,1759.84,495.79Z"/><path class="cls-1" d="M1839.84,853a16.22,16.22,0,0,0-15.9,11.76L1760.36,1079l.3,1H1919l.29-1-63.57-214.23A16.23,16.23,0,0,0,1839.84,853Z"/><path class="cls-1" d="M159.82,583.22A16.21,16.21,0,0,0,143.92,595L80.34,809.2l63.58,214.23a16.64,16.64,0,0,0,31.81,0L239.3,809.2,175.73,595A16.22,16.22,0,0,0,159.82,583.22Z"/><path class="cls-1" d="M1774.18,489.56a17.83,17.83,0,0,1-28.67,0l14.33,48.29Z"/><path class="cls-1" d="M1375.74,864.78a16.64,16.64,0,0,0-31.81,0L1280.36,1079l.29,1H1439l.3-1Z"/><path class="cls-1" d="M159.82,496.79a17.28,17.28,0,0,1-14.33-7.23l14.33,48.29,14.34-48.29A17.28,17.28,0,0,1,159.82,496.79Z"/><path class="cls-1" d="M0,43.83v452A16.21,16.21,0,0,0,15.73,484L79.3,269.81,15.73,55.58A16.21,16.21,0,0,0,0,43.83Z"/><path class="cls-1" d="M225.49,859.26a17.81,17.81,0,0,1,28.67,0L239.82,811Z"/><path class="cls-1" d="M239.82,765.59a16.22,16.22,0,0,0,15.91-11.75L319.3,539.61,255.73,325.38a16.64,16.64,0,0,0-31.81,0L160.35,539.61l63.57,214.23A16.22,16.22,0,0,0,239.82,765.59Z"/><path class="cls-1" d="M65.49,319.86a17.83,17.83,0,0,1,28.67,0l-14.34-48.3Z"/><path class="cls-1" d="M159.82,582.22a17.27,17.27,0,0,1,14.23,7.1l-14.23-48-14.23,48A17.28,17.28,0,0,1,159.82,582.22Z"/><path class="cls-1" d="M159.82,42.82a17.27,17.27,0,0,1,14.23,7.1L159.82,2l-14.23,48A17.28,17.28,0,0,1,159.82,42.82Z"/><path class="cls-1" d="M1823.94,214.44a16.64,16.64,0,0,0,31.81,0L1919.32.21l-.06-.21H1760.43l-.07.21Z"/><path class="cls-1" d="M79.82,227.2a17.28,17.28,0,0,1-14.23-7.1l14.23,48,14.23-48A17.27,17.27,0,0,1,79.82,227.2Z"/><path class="cls-1" d="M319.83,42.82a17.28,17.28,0,0,1,14.23,7.1L319.83,2l-14.23,48A17.27,17.27,0,0,1,319.83,42.82Z"/><path class="cls-1" d="M239.82,766.59a17.24,17.24,0,0,1-14.22-7.09l14.22,48,14.23-48A17.26,17.26,0,0,1,239.82,766.59Z"/><path class="cls-1" d="M79.82,766.59a17.28,17.28,0,0,1-14.23-7.09l14.23,48,14.23-48A17.26,17.26,0,0,1,79.82,766.59Z"/><path class="cls-1" d="M0,583.23v452a16.21,16.21,0,0,0,15.73-11.75L79.3,809.2,15.73,595A16.21,16.21,0,0,0,0,583.23Z"/><path class="cls-1" d="M1679.84,227.2a17.28,17.28,0,0,1-14.23-7.1l14.23,48,14.23-48A17.28,17.28,0,0,1,1679.84,227.2Z"/><path class="cls-1" d="M225.49,319.86a17.83,17.83,0,0,1,28.67,0l-14.34-48.3Z"/><path class="cls-1" d="M159.82,43.82a16.22,16.22,0,0,0-15.9,11.76L80.34,269.81,143.92,484a16.64,16.64,0,0,0,31.81,0L239.3,269.81,175.73,55.58A16.23,16.23,0,0,0,159.82,43.82Z"/><path class="cls-1" d="M1839.84,313.63a16.22,16.22,0,0,0-15.9,11.75l-63.58,214.23,63.58,214.23a16.64,16.64,0,0,0,31.81,0l63.57-214.23-63.57-214.23A16.22,16.22,0,0,0,1839.84,313.63Z"/><path class="cls-1" d="M1839.84,766.59a17.28,17.28,0,0,1-14.23-7.09l14.23,48,14.23-48A17.26,17.26,0,0,1,1839.84,766.59Z"/><path class="cls-1" d="M1663.94,214.44a16.64,16.64,0,0,0,31.81,0L1759.32.21l-.06-.21H1600.43l-.07.21Z"/><path class="cls-1" d="M159.82,1036.19a17.26,17.26,0,0,1-14.33-7.24l14.33,48.3,14.34-48.3A17.28,17.28,0,0,1,159.82,1036.19Z"/><path class="cls-1" d="M65.49,859.26a17.81,17.81,0,0,1,28.67,0L79.82,811Z"/><path class="cls-1" d="M95.73,864.78a16.64,16.64,0,0,0-31.81,0L.34,1079l.3,1H159l.29-1Z"/><path class="cls-1" d="M1839.84,312.63a17.27,17.27,0,0,1,14.34,7.23l-14.34-48.3-14.33,48.3A17.28,17.28,0,0,1,1839.84,312.63Z"/><path class="cls-1" d="M.34.21,63.92,214.44a16.64,16.64,0,0,0,31.81,0L159.3.21,159.24,0H.41Z"/><path class="cls-1" d="M479.83,582.22a17.28,17.28,0,0,1,14.23,7.1l-14.23-48-14.23,48A17.27,17.27,0,0,1,479.83,582.22Z"/><path class="cls-1" d="M399.83,766.59a17.26,17.26,0,0,1-14.23-7.09l14.23,48,14.23-48A17.28,17.28,0,0,1,399.83,766.59Z"/><path class="cls-1" d="M559.83,765.59a16.22,16.22,0,0,0,15.9-11.75l63.58-214.23L575.73,325.38a16.64,16.64,0,0,0-31.81,0L480.35,539.61l63.57,214.23A16.23,16.23,0,0,0,559.83,765.59Z"/><path class="cls-1" d="M575.73,864.78a16.64,16.64,0,0,0-31.81,0L480.35,1079l.29,1H639l.3-1Z"/><path class="cls-1" d="M385.49,319.86a17.83,17.83,0,0,1,28.67,0l-14.33-48.3Z"/><path class="cls-1" d="M415.73,864.78a16.64,16.64,0,0,0-31.81,0L320.35,1079l.29,1H479l.3-1Z"/><path class="cls-1" d="M479.83,1036.19a17.28,17.28,0,0,1-14.34-7.24l14.34,48.3,14.33-48.3A17.26,17.26,0,0,1,479.83,1036.19Z"/><path class="cls-1" d="M385.49,859.26a17.81,17.81,0,0,1,28.67,0L399.83,811Z"/><path class="cls-1" d="M1905.61,49.92a17.28,17.28,0,0,1,14.23-7.1h.16V2.5l-.16-.53Z"/><path class="cls-1" d="M479.83,496.79a17.3,17.3,0,0,1-14.34-7.23l14.34,48.29,14.33-48.29A17.28,17.28,0,0,1,479.83,496.79Z"/><path class="cls-1" d="M319.83,583.22A16.22,16.22,0,0,0,303.92,595L240.35,809.2l63.57,214.23a16.64,16.64,0,0,0,31.81,0L399.31,809.2,335.73,595A16.21,16.21,0,0,0,319.83,583.22Z"/><path class="cls-1" d="M14.05,589.32,0,542v40.26A17.22,17.22,0,0,1,14.05,589.32Z"/><path class="cls-1" d="M319.83,582.22a17.28,17.28,0,0,1,14.23,7.1l-14.23-48-14.23,48A17.27,17.27,0,0,1,319.83,582.22Z"/><path class="cls-1" d="M0,1036.18v40.47L14.15,1029A17.25,17.25,0,0,1,0,1036.18Z"/><path class="cls-1" d="M1134.17,489.56a17.83,17.83,0,0,1-28.67,0l14.33,48.29Z"/><path class="cls-1" d="M0,496.78v40.47l14.15-47.69A17.21,17.21,0,0,1,0,496.78Z"/><path class="cls-1" d="M479.83,42.82a17.28,17.28,0,0,1,14.23,7.1L479.83,2l-14.23,48A17.27,17.27,0,0,1,479.83,42.82Z"/><path class="cls-1" d="M319.83,43.82a16.23,16.23,0,0,0-15.91,11.76L240.35,269.81,303.92,484a16.64,16.64,0,0,0,31.81,0l63.58-214.22L335.73,55.58A16.22,16.22,0,0,0,319.83,43.82Z"/><path class="cls-1" d="M1839.84,227.2a17.28,17.28,0,0,1-14.23-7.1l14.23,48,14.23-48A17.27,17.27,0,0,1,1839.84,227.2Z"/><path class="cls-1" d="M14.05,49.92,0,2.57V42.83A17.22,17.22,0,0,1,14.05,49.92Z"/><path class="cls-1" d="M79.82,765.59a16.23,16.23,0,0,0,15.91-11.75L159.3,539.61,95.73,325.38a16.64,16.64,0,0,0-31.81,0L.34,539.61,63.92,753.84A16.22,16.22,0,0,0,79.82,765.59Z"/><path class="cls-1" d="M895.74,864.78a16.64,16.64,0,0,0-31.81,0L800.35,1079l.3,1H959l.29-1Z"/><path class="cls-1" d="M1905.51,1029l14.33,48.3.16-.53v-40.54h-.16A17.26,17.26,0,0,1,1905.51,1029Z"/><path class="cls-1" d="M1903.94,595,1840.36,809.2l63.58,214.23a16.22,16.22,0,0,0,15.9,11.76h.16V583.23h-.16A16.21,16.21,0,0,0,1903.94,595Z"/><path class="cls-1" d="M1055.74,864.78a16.64,16.64,0,0,0-31.81,0L960.35,1079l.3,1H1119l.29-1Z"/><path class="cls-1" d="M1903.94,55.58l-63.58,214.23L1903.94,484a16.21,16.21,0,0,0,15.9,11.76h.16V43.83h-.16A16.22,16.22,0,0,0,1903.94,55.58Z"/><path class="cls-1" d="M255.73,864.78a16.64,16.64,0,0,0-31.81,0L160.35,1079l.29,1H319l.29-1Z"/><path class="cls-1" d="M1905.61,589.32a17.28,17.28,0,0,1,14.23-7.1h.16V541.89l-.16-.52Z"/><path class="cls-1" d="M735.73,864.78a16.63,16.63,0,0,0-31.8,0L640.35,1079l.3,1H799l.29-1Z"/><path class="cls-1" d="M1905.51,489.56l14.33,48.29.16-.52V496.78h-.16A17.28,17.28,0,0,1,1905.51,489.56Z"/><path class="cls-2" d="M16.68,55.29,65.59,220.1a17.81,17.81,0,0,0,28.46,0L143,55.29a17.8,17.8,0,0,1,2.63-5.37L159.82,2,159.3.21l0-.14,0-.07h-.13l.06.21L95.73,214.44a16.64,16.64,0,0,1-31.81,0L.34.21.41,0H0V2.57L14.05,49.92A17.8,17.8,0,0,1,16.68,55.29Z"/><path class="cls-2" d="M176.69,55.29,225.6,220.1a17.8,17.8,0,0,0,28.45,0L303,55.29a17.59,17.59,0,0,1,2.64-5.37L319.83,2,319.3.21l.05-.14,0-.07h-.13l.06.21L255.73,214.44a16.64,16.64,0,0,1-31.81,0L160.35.21l.06-.21h-.13l.07.21,0,.15L159.82,2l14.23,48A18.05,18.05,0,0,1,176.69,55.29Z"/><polygon class="cls-2" points="160.34 0.21 160.28 0 159.37 0 159.34 0.07 159.3 0.21 159.82 1.97 160.3 0.35 160.34 0.21"/><path class="cls-2" d="M336.69,55.29,385.6,220.1a17.81,17.81,0,0,0,28.46,0L463,55.29a18.05,18.05,0,0,1,2.64-5.37L479.83,2,479.31.21l0-.14,0-.07h-.13l.07.21L415.73,214.44a16.64,16.64,0,0,1-31.81,0L320.35.21l.06-.21h-.13l.07.21,0,.15L319.83,2l14.23,48A17.8,17.8,0,0,1,336.69,55.29Z"/><polygon class="cls-2" points="320.35 0.21 320.28 0 319.37 0 319.35 0.07 319.3 0.21 319.83 1.97 320.31 0.35 320.35 0.21"/><path class="cls-2" d="M496.69,55.29,545.6,220.1a17.81,17.81,0,0,0,28.46,0L623,55.29a17.8,17.8,0,0,1,2.63-5.37L639.83,2,639.31.21l0-.14,0-.07h-.13l.07.21L575.73,214.44a16.64,16.64,0,0,1-31.81,0L480.35.21l.06-.21h-.12l.06.21,0,.15L479.83,2l14.23,48A17.8,17.8,0,0,1,496.69,55.29Z"/><polygon class="cls-2" points="480.35 0.21 480.29 0 479.37 0 479.35 0.07 479.31 0.21 479.83 1.97 480.31 0.35 480.35 0.21"/><path class="cls-2" d="M656.69,55.29,705.6,220.1a17.81,17.81,0,0,0,28.46,0L783,55.29a17.8,17.8,0,0,1,2.63-5.37L799.83,2,799.31.21l0-.14,0-.07h-.12l.06.21L735.73,214.44a16.63,16.63,0,0,1-31.8,0L640.35.21l.06-.21h-.12l.06.21,0,.15L639.83,2l14.23,48A17.8,17.8,0,0,1,656.69,55.29Z"/><polygon class="cls-2" points="640.35 0.21 640.29 0 639.37 0 639.35 0.07 639.31 0.21 639.83 1.97 640.31 0.35 640.35 0.21"/><path class="cls-2" d="M800.31.36,799.83,2l14.23,48a17.8,17.8,0,0,1,2.63,5.37L865.6,220.1a17.81,17.81,0,0,0,28.46,0L943,55.29a17.8,17.8,0,0,1,2.63-5.37L959.83,2,959.31.21l0-.14,0-.07h-.12l.06.21L895.74,214.44a16.64,16.64,0,0,1-31.81,0L800.35.21l.07-.21h-.13l.06.21Z"/><polygon class="cls-2" points="799.31 0.21 799.83 1.97 800.31 0.35 800.35 0.21 800.29 0 799.37 0 799.35 0.07 799.31 0.21"/><path class="cls-2" d="M960.31.36,959.83,2l14.23,48a18.05,18.05,0,0,1,2.64,5.37l48.9,164.81a17.81,17.81,0,0,0,28.46,0L1103,55.29a17.59,17.59,0,0,1,2.64-5.37L1119.83,2l-.52-1.76,0-.14,0-.07h-.13l.06.21-63.57,214.23a16.64,16.64,0,0,1-31.81,0L960.35.21l.07-.21h-.13l.06.21Z"/><polygon class="cls-2" points="959.31 0.21 959.83 1.97 960.31 0.35 960.35 0.21 960.29 0 959.38 0 959.35 0.07 959.31 0.21"/><path class="cls-2" d="M1120.31.36,1119.83,2l14.23,48a17.59,17.59,0,0,1,2.64,5.37l48.91,164.81a17.81,17.81,0,0,0,28.46,0L1263,55.29a18.05,18.05,0,0,1,2.64-5.37L1279.84,2l-.52-1.76,0-.14,0-.07h-.13l.07.21-63.58,214.23a16.64,16.64,0,0,1-31.81,0L1120.36.21l.06-.21h-.13l.07.21Z"/><polygon class="cls-2" points="1119.31 0.21 1119.84 1.97 1120.31 0.35 1120.36 0.21 1120.29 0 1119.38 0 1119.36 0.07 1119.31 0.21"/><path class="cls-2" d="M1280.32.36,1279.84,2l14.23,48a17.8,17.8,0,0,1,2.63,5.37l48.91,164.81a17.81,17.81,0,0,0,28.46,0L1423,55.29a17.8,17.8,0,0,1,2.63-5.37L1439.84,2l-.52-1.76,0-.14,0-.07h-.13l.07.21-63.58,214.23a16.64,16.64,0,0,1-31.81,0L1280.36.21l.06-.21h-.12l.06.21Z"/><polygon class="cls-2" points="1279.32 0.21 1279.84 1.97 1280.32 0.35 1280.36 0.21 1280.3 0 1279.38 0 1279.36 0.07 1279.32 0.21"/><path class="cls-2" d="M1440.32.36,1439.84,2l14.23,48a17.8,17.8,0,0,1,2.63,5.37l48.91,164.81a17.28,17.28,0,0,0,14.23,7.1h0a17.28,17.28,0,0,0,14.23-7.1L1583,55.29a17.8,17.8,0,0,1,2.63-5.37L1599.84,2l-.52-1.76,0-.14,0-.07h-.12l.06.21-63.58,214.23a16.63,16.63,0,0,1-31.8,0L1440.36.21l.06-.21h-.12l.06.21Z"/><polygon class="cls-2" points="1439.36 0.07 1439.32 0.21 1439.84 1.97 1440.32 0.35 1440.36 0.21 1440.3 0 1439.38 0 1439.36 0.07"/><path class="cls-2" d="M1600.32.36,1599.84,2l14.23,48a17.8,17.8,0,0,1,2.63,5.37l48.91,164.81a17.81,17.81,0,0,0,28.46,0L1743,55.29a17.8,17.8,0,0,1,2.63-5.37L1759.84,2l-.52-1.76,0-.14,0-.07h-.12l.06.21-63.57,214.23a16.64,16.64,0,0,1-31.81,0L1600.36.21l.07-.21h-.13l.06.21Z"/><polygon class="cls-2" points="1599.36 0.07 1599.32 0.21 1599.84 1.97 1600.32 0.35 1600.36 0.21 1600.3 0 1599.38 0 1599.36 0.07"/><path class="cls-2" d="M1760.32.36,1759.84,2l14.23,48a18.05,18.05,0,0,1,2.64,5.37l48.9,164.81a17.81,17.81,0,0,0,28.46,0L1903,55.29a17.8,17.8,0,0,1,2.63-5.37L1919.84,2l-.52-1.76,0-.14,0-.07h-.13l.06.21-63.57,214.23a16.64,16.64,0,0,1-31.81,0L1760.36.21l.07-.21h-.13l.06.21Z"/><polygon class="cls-2" points="1759.36 0.07 1759.32 0.21 1759.84 1.97 1760.32 0.35 1760.36 0.21 1760.3 0 1759.38 0 1759.36 0.07"/><polygon class="cls-2" points="1920 2.5 1920 1.45 1919.84 1.97 1920 2.5"/><polygon class="cls-2" points="1919.38 0 1919.36 0.07 1919.32 0.21 1919.84 1.97 1920 1.45 1920 0 1919.38 0"/><path class="cls-2" d="M15.73,55.58,79.3,269.81l0-.15.48-1.61-14.23-48A17.8,17.8,0,0,1,63,214.73L14.05,49.92A17.22,17.22,0,0,0,0,42.83v1A16.21,16.21,0,0,1,15.73,55.58Z"/><path class="cls-2" d="M14.15,489.56,63,325.1a17.81,17.81,0,0,1,2.53-5.24l14.33-48.3-.52-1.75L15.73,484A16.21,16.21,0,0,1,0,495.78v1A17.21,17.21,0,0,0,14.15,489.56Z"/><path class="cls-2" d="M14.05,49.92,63,214.73a17.8,17.8,0,0,0,2.63,5.37L16.68,55.29A17.8,17.8,0,0,0,14.05,49.92Z"/><path class="cls-2" d="M143.92,55.58a16.64,16.64,0,0,1,31.81,0L239.3,269.81l0-.15.47-1.61-14.22-48a17.59,17.59,0,0,1-2.64-5.37L174.05,49.92a17.81,17.81,0,0,0-28.46,0L96.69,214.73a18.05,18.05,0,0,1-2.64,5.37l-14.23,48,.52,1.76Z"/><path class="cls-2" d="M159.82,496.79a17.28,17.28,0,0,0,14.34-7.23L223,325.1a18.06,18.06,0,0,1,2.53-5.24l14.33-48.3-.52-1.75L175.73,484a16.64,16.64,0,0,1-31.81,0L80.34,269.81l0,.14-.48,1.61,14.34,48.3a18.06,18.06,0,0,1,2.53,5.24l48.8,164.46A17.28,17.28,0,0,0,159.82,496.79Z"/><path class="cls-2" d="M145.59,49.92A17.8,17.8,0,0,0,143,55.29L94.05,220.1a18.05,18.05,0,0,0,2.64-5.37Z"/><path class="cls-2" d="M174.05,49.92,223,214.73a17.59,17.59,0,0,0,2.64,5.37L176.69,55.29A18.05,18.05,0,0,0,174.05,49.92Z"/><polygon class="cls-2" points="80.34 269.81 79.82 268.05 79.34 269.66 79.3 269.81 79.82 271.56 80.3 269.95 80.34 269.81"/><path class="cls-2" d="M303.92,55.58a16.64,16.64,0,0,1,31.81,0l63.58,214.23,0-.15.48-1.61-14.23-48a18.05,18.05,0,0,1-2.64-5.37L334.06,49.92a17.81,17.81,0,0,0-28.46,0L256.69,214.73a17.59,17.59,0,0,1-2.64,5.37l-14.23,48,.53,1.76Z"/><path class="cls-2" d="M319.83,496.79a17.28,17.28,0,0,0,14.33-7.23L383,325.1a18.06,18.06,0,0,1,2.53-5.24l14.34-48.3-.52-1.75L335.73,484a16.64,16.64,0,0,1-31.81,0L240.35,269.81l0,.14-.48,1.61,14.34,48.3a18.06,18.06,0,0,1,2.53,5.24l48.8,164.46A17.28,17.28,0,0,0,319.83,496.79Z"/><path class="cls-2" d="M305.6,49.92A17.59,17.59,0,0,0,303,55.29L254.05,220.1a17.59,17.59,0,0,0,2.64-5.37Z"/><path class="cls-2" d="M334.06,49.92,383,214.73a18.05,18.05,0,0,0,2.64,5.37L336.69,55.29A17.8,17.8,0,0,0,334.06,49.92Z"/><polygon class="cls-2" points="240.35 269.81 239.82 268.05 239.34 269.66 239.3 269.81 239.82 271.56 240.3 269.95 240.35 269.81"/><path class="cls-2" d="M479.83,496.79a17.28,17.28,0,0,0,14.33-7.23L543,325.1a17.56,17.56,0,0,1,2.53-5.24l14.33-48.3-.52-1.75L495.73,484a16.64,16.64,0,0,1-31.81,0L400.35,269.81l0,.14-.48,1.61,14.33,48.3a17.81,17.81,0,0,1,2.53,5.24l48.8,164.46A17.3,17.3,0,0,0,479.83,496.79Z"/><path class="cls-2" d="M463.92,55.58a16.64,16.64,0,0,1,31.81,0l63.58,214.23,0-.15.48-1.61-14.23-48a17.8,17.8,0,0,1-2.63-5.37L494.06,49.92a17.81,17.81,0,0,0-28.46,0L416.69,214.73a17.8,17.8,0,0,1-2.63,5.37l-14.23,48,.52,1.76Z"/><path class="cls-2" d="M465.6,49.92A18.05,18.05,0,0,0,463,55.29L414.06,220.1a17.8,17.8,0,0,0,2.63-5.37Z"/><path class="cls-2" d="M494.06,49.92,543,214.73a17.8,17.8,0,0,0,2.63,5.37L496.69,55.29A17.8,17.8,0,0,0,494.06,49.92Z"/><polygon class="cls-2" points="400.35 269.81 399.83 268.05 399.35 269.66 399.31 269.81 399.83 271.56 400.31 269.95 400.35 269.81"/><path class="cls-2" d="M639.83,496.79a17.28,17.28,0,0,0,14.33-7.23L703,325.1a17.56,17.56,0,0,1,2.53-5.24l14.33-48.3-.52-1.75L655.73,484a16.63,16.63,0,0,1-31.8,0L560.35,269.81l0,.14-.48,1.61,14.33,48.3a17.81,17.81,0,0,1,2.53,5.24L625.5,489.56A17.26,17.26,0,0,0,639.83,496.79Z"/><path class="cls-2" d="M623.93,55.58a16.63,16.63,0,0,1,31.8,0l63.58,214.23,0-.15.48-1.61-14.23-48a17.8,17.8,0,0,1-2.63-5.37L654.06,49.92a17.81,17.81,0,0,0-28.46,0L576.69,214.73a17.8,17.8,0,0,1-2.63,5.37l-14.23,48,.52,1.76Z"/><path class="cls-2" d="M625.6,49.92A17.8,17.8,0,0,0,623,55.29L574.06,220.1a17.8,17.8,0,0,0,2.63-5.37Z"/><path class="cls-2" d="M654.06,49.92,703,214.73a17.8,17.8,0,0,0,2.63,5.37L656.69,55.29A17.8,17.8,0,0,0,654.06,49.92Z"/><polygon class="cls-2" points="560.35 269.81 559.83 268.05 559.35 269.66 559.31 269.81 559.83 271.56 560.31 269.95 560.35 269.81"/><path class="cls-2" d="M799.83,496.79a17.26,17.26,0,0,0,14.33-7.23L863,325.1a17.81,17.81,0,0,1,2.53-5.24l14.33-48.3-.52-1.75L815.73,484a16.63,16.63,0,0,1-31.8,0L720.35,269.81l0,.14-.48,1.61,14.33,48.3a17.56,17.56,0,0,1,2.53,5.24L785.5,489.56A17.28,17.28,0,0,0,799.83,496.79Z"/><path class="cls-2" d="M783.93,55.58a16.63,16.63,0,0,1,31.8,0l63.58,214.23,0-.15.48-1.61-14.23-48a17.8,17.8,0,0,1-2.63-5.37L814.06,49.92a17.81,17.81,0,0,0-28.46,0L736.69,214.73a17.8,17.8,0,0,1-2.63,5.37l-14.23,48,.52,1.76Z"/><path class="cls-2" d="M785.6,49.92A17.8,17.8,0,0,0,783,55.29L734.06,220.1a17.8,17.8,0,0,0,2.63-5.37Z"/><path class="cls-2" d="M865.6,220.1,816.69,55.29a17.8,17.8,0,0,0-2.63-5.37L863,214.73A17.8,17.8,0,0,0,865.6,220.1Z"/><polygon class="cls-2" points="720.35 269.81 719.83 268.05 719.35 269.66 719.31 269.81 719.83 271.56 720.31 269.95 720.35 269.81"/><path class="cls-2" d="M959.83,496.79a17.28,17.28,0,0,0,14.34-7.23L1023,325.1a18.06,18.06,0,0,1,2.53-5.24l14.33-48.3-.52-1.75L975.74,484a16.64,16.64,0,0,1-31.81,0L880.35,269.81l0,.14-.48,1.61,14.33,48.3a17.56,17.56,0,0,1,2.53,5.24L945.5,489.56A17.28,17.28,0,0,0,959.83,496.79Z"/><path class="cls-2" d="M880.35,269.81,943.93,55.58a16.64,16.64,0,0,1,31.81,0l63.57,214.23,0-.15.48-1.61-14.23-48a17.8,17.8,0,0,1-2.63-5.37L974.06,49.92a17.81,17.81,0,0,0-28.46,0L896.69,214.73a17.8,17.8,0,0,1-2.63,5.37l-14.23,48Z"/><path class="cls-2" d="M945.6,49.92A17.8,17.8,0,0,0,943,55.29L894.06,220.1a17.8,17.8,0,0,0,2.63-5.37Z"/><path class="cls-2" d="M1025.6,220.1,976.7,55.29a18.05,18.05,0,0,0-2.64-5.37L1023,214.73A17.8,17.8,0,0,0,1025.6,220.1Z"/><polygon class="cls-2" points="880.35 269.81 879.83 268.05 879.35 269.66 879.31 269.81 879.83 271.56 880.31 269.95 880.35 269.81"/><path class="cls-2" d="M1040.36,269.81l63.57-214.23a16.64,16.64,0,0,1,31.81,0l63.57,214.23,0-.15.48-1.61-14.23-48a17.59,17.59,0,0,1-2.64-5.37L1134.06,49.92a17.8,17.8,0,0,0-28.45,0L1056.7,214.73a17.82,17.82,0,0,1-2.64,5.37l-14.23,48Z"/><path class="cls-2" d="M1135.74,484a16.64,16.64,0,0,1-31.81,0l-63.57-214.22,0,.14-.48,1.61,14.34,48.3a18.06,18.06,0,0,1,2.53,5.24l48.8,164.46a17.83,17.83,0,0,0,28.67,0L1183,325.1a18.06,18.06,0,0,1,2.53-5.24l14.34-48.3-.53-1.75Z"/><path class="cls-2" d="M1105.61,49.92a17.59,17.59,0,0,0-2.64,5.37L1054.06,220.1a17.82,17.82,0,0,0,2.64-5.37Z"/><path class="cls-2" d="M1185.61,220.1,1136.7,55.29a17.59,17.59,0,0,0-2.64-5.37L1183,214.73A17.59,17.59,0,0,0,1185.61,220.1Z"/><polygon class="cls-2" points="1040.31 269.95 1040.36 269.81 1039.83 268.05 1039.35 269.66 1039.31 269.81 1039.83 271.56 1040.31 269.95"/><path class="cls-2" d="M1295.74,484a16.64,16.64,0,0,1-31.81,0l-63.57-214.22,0,.14-.48,1.61,14.33,48.3a18.06,18.06,0,0,1,2.53,5.24l48.8,164.46a17.83,17.83,0,0,0,28.67,0L1343,325.1a17.56,17.56,0,0,1,2.53-5.24l14.33-48.3-.52-1.75Z"/><path class="cls-2" d="M1343,214.73,1294.07,49.92a17.81,17.81,0,0,0-28.46,0L1216.7,214.73a17.8,17.8,0,0,1-2.63,5.37l-14.23,48,.52,1.76,63.57-214.23a16.64,16.64,0,0,1,31.81,0l63.58,214.23,0-.15.48-1.61-14.23-48A17.8,17.8,0,0,1,1343,214.73Z"/><path class="cls-2" d="M1265.61,49.92a18.05,18.05,0,0,0-2.64,5.37l-48.9,164.81a17.8,17.8,0,0,0,2.63-5.37Z"/><path class="cls-2" d="M1345.61,220.1,1296.7,55.29a17.8,17.8,0,0,0-2.63-5.37L1343,214.73A17.8,17.8,0,0,0,1345.61,220.1Z"/><polygon class="cls-2" points="1199.31 269.81 1199.84 271.56 1200.32 269.95 1200.36 269.81 1199.84 268.05 1199.36 269.66 1199.31 269.81"/><path class="cls-2" d="M1455.74,484a16.63,16.63,0,0,1-31.8,0l-63.58-214.22,0,.14-.48,1.61,14.33,48.3a17.81,17.81,0,0,1,2.53,5.24l48.81,164.46a17.26,17.26,0,0,0,14.33,7.23h0a17.28,17.28,0,0,0,14.33-7.23L1503,325.1a17.56,17.56,0,0,1,2.53-5.24l14.33-48.3-.52-1.75Z"/><path class="cls-2" d="M1503,214.73,1454.07,49.92a17.81,17.81,0,0,0-28.46,0L1376.7,214.73a17.8,17.8,0,0,1-2.63,5.37l-14.23,48,.52,1.76,63.57-214.23a16.64,16.64,0,0,1,31.81,0l63.58,214.23,0-.15.48-1.61-14.23-48A17.8,17.8,0,0,1,1503,214.73Z"/><path class="cls-2" d="M1374.07,220.1a17.8,17.8,0,0,0,2.63-5.37l48.91-164.81a17.8,17.8,0,0,0-2.63,5.37Z"/><path class="cls-2" d="M1505.61,220.1,1456.7,55.29a17.8,17.8,0,0,0-2.63-5.37L1503,214.73A17.8,17.8,0,0,0,1505.61,220.1Z"/><polygon class="cls-2" points="1359.32 269.81 1359.84 271.56 1360.32 269.95 1360.36 269.81 1359.84 268.05 1359.36 269.66 1359.32 269.81"/><path class="cls-2" d="M1663,214.73,1614.07,49.92a17.81,17.81,0,0,0-28.46,0L1536.7,214.73a17.8,17.8,0,0,1-2.63,5.37l-14.23,48,.52,1.76,63.58-214.23a16.63,16.63,0,0,1,31.8,0l63.58,214.23,0-.15.48-1.61-14.23-48A17.8,17.8,0,0,1,1663,214.73Z"/><path class="cls-2" d="M1615.74,484a16.63,16.63,0,0,1-31.8,0l-63.58-214.22,0,.14-.48,1.61,14.33,48.3a17.56,17.56,0,0,1,2.53,5.24l48.81,164.46a17.82,17.82,0,0,0,28.66,0L1663,325.1a17.81,17.81,0,0,1,2.53-5.24l14.33-48.3-.52-1.75Z"/><path class="cls-2" d="M1534.07,220.1a17.8,17.8,0,0,0,2.63-5.37l48.91-164.81a17.8,17.8,0,0,0-2.63,5.37Z"/><path class="cls-2" d="M1665.61,220.1,1616.7,55.29a17.8,17.8,0,0,0-2.63-5.37L1663,214.73A17.8,17.8,0,0,0,1665.61,220.1Z"/><polygon class="cls-2" points="1519.32 269.81 1519.84 271.56 1520.32 269.95 1520.36 269.81 1519.84 268.05 1519.36 269.66 1519.32 269.81"/><path class="cls-2" d="M1823,214.73,1774.07,49.92a17.81,17.81,0,0,0-28.46,0L1696.7,214.73a17.8,17.8,0,0,1-2.63,5.37l-14.23,48,.52,1.76,63.58-214.23a16.64,16.64,0,0,1,31.81,0l63.57,214.23,0-.15.48-1.61-14.23-48A17.8,17.8,0,0,1,1823,214.73Z"/><path class="cls-2" d="M1775.75,484a16.64,16.64,0,0,1-31.81,0l-63.58-214.22,0,.14-.48,1.61,14.33,48.3a17.56,17.56,0,0,1,2.53,5.24l48.81,164.46a17.83,17.83,0,0,0,28.67,0L1823,325.1a17.81,17.81,0,0,1,2.53-5.24l14.33-48.3-.52-1.75Z"/><path class="cls-2" d="M1694.07,220.1a17.8,17.8,0,0,0,2.63-5.37l48.91-164.81a17.8,17.8,0,0,0-2.63,5.37Z"/><path class="cls-2" d="M1825.61,220.1l-48.9-164.81a18.05,18.05,0,0,0-2.64-5.37L1823,214.73A17.8,17.8,0,0,0,1825.61,220.1Z"/><polygon class="cls-2" points="1679.32 269.81 1679.84 271.56 1680.32 269.95 1680.36 269.81 1679.84 268.05 1679.36 269.66 1679.32 269.81"/><path class="cls-2" d="M1903.94,484l-63.58-214.22,0,.14-.48,1.61,14.34,48.3a18.06,18.06,0,0,1,2.53,5.24l48.8,164.46a17.28,17.28,0,0,0,14.33,7.23h.16v-1h-.16A16.21,16.21,0,0,1,1903.94,484Z"/><path class="cls-2" d="M1905.61,49.92l-48.9,164.81a18.05,18.05,0,0,1-2.64,5.37l-14.23,48,.52,1.76,63.58-214.23a16.22,16.22,0,0,1,15.9-11.76h.16v-1h-.16A17.28,17.28,0,0,0,1905.61,49.92Z"/><path class="cls-2" d="M1854.07,220.1a18.05,18.05,0,0,0,2.64-5.37l48.9-164.81a17.8,17.8,0,0,0-2.63,5.37Z"/><polygon class="cls-2" points="1839.32 269.81 1839.84 271.56 1840.32 269.95 1840.36 269.81 1839.84 268.05 1839.36 269.66 1839.32 269.81"/><path class="cls-2" d="M16.68,594.69,65.59,759.5a17.83,17.83,0,0,0,28.46,0L143,594.69a17.8,17.8,0,0,1,2.63-5.37l14.23-48-.52-1.76,0-.14.48-1.62-14.33-48.29a18.19,18.19,0,0,1-2.53-5.24L94.16,319.86a17.83,17.83,0,0,0-28.67,0L16.68,484.32a17.68,17.68,0,0,1-2.53,5.24L0,537.25V542l14.05,47.35A17.8,17.8,0,0,1,16.68,594.69ZM63.92,325.38a16.64,16.64,0,0,1,31.81,0L159.3,539.61,95.73,753.84a16.64,16.64,0,0,1-31.81,0L.34,539.61Z"/><path class="cls-2" d="M14.15,489.56a17.68,17.68,0,0,0,2.53-5.24L65.49,319.86A17.81,17.81,0,0,0,63,325.1Z"/><path class="cls-2" d="M94.16,319.86,143,484.32a18.19,18.19,0,0,0,2.53,5.24L96.69,325.1A18.06,18.06,0,0,0,94.16,319.86Z"/><path class="cls-2" d="M176.69,594.69,225.6,759.5a17.82,17.82,0,0,0,28.45,0L303,594.69a17.59,17.59,0,0,1,2.64-5.37l14.23-48-.53-1.76.05-.14.48-1.62-14.34-48.29a18.19,18.19,0,0,1-2.53-5.24l-48.8-164.46a17.83,17.83,0,0,0-28.67,0l-48.8,164.46a18.19,18.19,0,0,1-2.53,5.24l-14.34,48.29.53,1.76,0,.14-.48,1.62,14.23,48A18.05,18.05,0,0,1,176.69,594.69Zm47.23-269.31a16.64,16.64,0,0,1,31.81,0L319.3,539.61,255.73,753.84a16.64,16.64,0,0,1-31.81,0L160.35,539.61Z"/><path class="cls-2" d="M174.16,489.56a18.19,18.19,0,0,0,2.53-5.24l48.8-164.46A18.06,18.06,0,0,0,223,325.1Z"/><path class="cls-2" d="M254.16,319.86,303,484.32a18.19,18.19,0,0,0,2.53,5.24L256.69,325.1A18.06,18.06,0,0,0,254.16,319.86Z"/><polygon class="cls-2" points="160.34 539.61 159.82 537.85 159.34 539.47 159.3 539.61 159.82 541.37 160.3 539.75 160.34 539.61"/><path class="cls-2" d="M336.69,594.69,385.6,759.5a17.83,17.83,0,0,0,28.46,0L463,594.69a18.05,18.05,0,0,1,2.64-5.37l14.23-48-.52-1.76,0-.14.48-1.62-14.34-48.29a18.19,18.19,0,0,1-2.53-5.24l-48.8-164.46a17.83,17.83,0,0,0-28.67,0l-48.8,164.46a18.19,18.19,0,0,1-2.53,5.24l-14.33,48.29.52,1.76,0,.14-.48,1.62,14.23,48A17.8,17.8,0,0,1,336.69,594.69Zm47.23-269.31a16.64,16.64,0,0,1,31.81,0l63.58,214.23L415.73,753.84a16.64,16.64,0,0,1-31.81,0L320.35,539.61Z"/><path class="cls-2" d="M334.16,489.56a18.19,18.19,0,0,0,2.53-5.24l48.8-164.46A18.06,18.06,0,0,0,383,325.1Z"/><path class="cls-2" d="M414.16,319.86,463,484.32a18.19,18.19,0,0,0,2.53,5.24L416.69,325.1A17.81,17.81,0,0,0,414.16,319.86Z"/><polygon class="cls-2" points="320.35 539.61 319.83 537.85 319.35 539.47 319.3 539.61 319.83 541.37 320.31 539.75 320.35 539.61"/><path class="cls-2" d="M496.69,594.69,545.6,759.5a17.83,17.83,0,0,0,28.46,0L623,594.69a17.8,17.8,0,0,1,2.63-5.37l14.23-48-.52-1.76,0-.14.48-1.62L625.5,489.56a17.68,17.68,0,0,1-2.53-5.24L574.16,319.86a17.82,17.82,0,0,0-28.66,0L496.69,484.32a17.93,17.93,0,0,1-2.53,5.24l-14.33,48.29.52,1.76,0,.14-.48,1.62,14.23,48A17.8,17.8,0,0,1,496.69,594.69Zm47.23-269.31a16.64,16.64,0,0,1,31.81,0l63.58,214.23L575.73,753.84a16.64,16.64,0,0,1-31.81,0L480.35,539.61Z"/><path class="cls-2" d="M494.16,489.56a17.93,17.93,0,0,0,2.53-5.24L545.5,319.86A17.56,17.56,0,0,0,543,325.1Z"/><path class="cls-2" d="M574.16,319.86,623,484.32a17.68,17.68,0,0,0,2.53,5.24L576.69,325.1A17.81,17.81,0,0,0,574.16,319.86Z"/><polygon class="cls-2" points="480.35 539.61 479.83 537.85 479.35 539.47 479.31 539.61 479.83 541.37 480.31 539.75 480.35 539.61"/><path class="cls-2" d="M656.69,594.69,705.6,759.5a17.83,17.83,0,0,0,28.46,0L783,594.69a17.8,17.8,0,0,1,2.63-5.37l14.23-48-.52-1.76,0-.14.48-1.62L785.5,489.56a17.68,17.68,0,0,1-2.53-5.24L734.16,319.86a17.82,17.82,0,0,0-28.66,0L656.69,484.32a17.68,17.68,0,0,1-2.53,5.24l-14.33,48.29.52,1.76,0,.14-.48,1.62,14.23,48A17.8,17.8,0,0,1,656.69,594.69Zm47.24-269.31a16.63,16.63,0,0,1,31.8,0l63.58,214.23L735.73,753.84a16.63,16.63,0,0,1-31.8,0L640.35,539.61Z"/><path class="cls-2" d="M654.16,489.56a17.68,17.68,0,0,0,2.53-5.24L705.5,319.86A17.56,17.56,0,0,0,703,325.1Z"/><path class="cls-2" d="M734.16,319.86,783,484.32a17.68,17.68,0,0,0,2.53,5.24L736.69,325.1A17.56,17.56,0,0,0,734.16,319.86Z"/><polygon class="cls-2" points="640.35 539.61 639.83 537.85 639.35 539.47 639.31 539.61 639.83 541.37 640.31 539.75 640.35 539.61"/><path class="cls-2" d="M816.69,594.69,865.6,759.5a17.83,17.83,0,0,0,28.46,0L943,594.69a17.8,17.8,0,0,1,2.63-5.37l14.23-48-.52-1.76,0-.14.48-1.62L945.5,489.56a17.93,17.93,0,0,1-2.53-5.24L894.16,319.86a17.82,17.82,0,0,0-28.66,0L816.69,484.32a17.68,17.68,0,0,1-2.53,5.24l-14.33,48.29.52,1.76,0,.14-.48,1.62,14.23,48A17.8,17.8,0,0,1,816.69,594.69Zm47.24-269.31a16.64,16.64,0,0,1,31.81,0l63.57,214.23L895.74,753.84a16.64,16.64,0,0,1-31.81,0L800.35,539.61Z"/><path class="cls-2" d="M814.16,489.56a17.68,17.68,0,0,0,2.53-5.24L865.5,319.86A17.81,17.81,0,0,0,863,325.1Z"/><path class="cls-2" d="M894.16,319.86,943,484.32a17.93,17.93,0,0,0,2.53,5.24L896.69,325.1A17.56,17.56,0,0,0,894.16,319.86Z"/><polygon class="cls-2" points="800.35 539.61 799.83 537.85 799.35 539.47 799.31 539.61 799.83 541.37 800.31 539.75 800.35 539.61"/><path class="cls-2" d="M976.7,594.69l48.9,164.81a17.83,17.83,0,0,0,28.46,0L1103,594.69a17.59,17.59,0,0,1,2.64-5.37l14.22-48-.52-1.76,0-.14.47-1.62-14.33-48.29a18.19,18.19,0,0,1-2.53-5.24l-48.8-164.46a17.83,17.83,0,0,0-28.67,0L976.7,484.32a18.19,18.19,0,0,1-2.53,5.24l-14.34,48.29.52,1.76,0,.14-.48,1.62,14.23,48A18.05,18.05,0,0,1,976.7,594.69Zm47.23-269.31a16.64,16.64,0,0,1,31.81,0l63.57,214.23-63.57,214.23a16.64,16.64,0,0,1-31.81,0L960.35,539.61Z"/><path class="cls-2" d="M974.17,489.56a18.19,18.19,0,0,0,2.53-5.24l48.8-164.46a18.06,18.06,0,0,0-2.53,5.24Z"/><path class="cls-2" d="M1105.5,489.56,1056.7,325.1a18.06,18.06,0,0,0-2.53-5.24L1103,484.32A18.19,18.19,0,0,0,1105.5,489.56Z"/><polygon class="cls-2" points="960.35 539.61 959.83 537.85 959.35 539.47 959.31 539.61 959.83 541.37 960.31 539.75 960.35 539.61"/><path class="cls-2" d="M1199.83,312.63a17.28,17.28,0,0,0-14.33,7.23l-48.8,164.46a18.19,18.19,0,0,1-2.53,5.24l-14.34,48.29.53,1.76,0,.14-.48,1.62,14.23,48a17.59,17.59,0,0,1,2.64,5.37l48.91,164.81a17.82,17.82,0,0,0,28.45,0L1263,594.69a18.05,18.05,0,0,1,2.64-5.37l14.23-48-.52-1.76,0-.14.48-1.62-14.34-48.29a18.19,18.19,0,0,1-2.53-5.24l-48.8-164.46A17.28,17.28,0,0,0,1199.83,312.63Zm79.49,227-63.58,214.23a16.64,16.64,0,0,1-31.81,0l-63.57-214.23,63.57-214.23a16.64,16.64,0,0,1,31.81,0Z"/><path class="cls-2" d="M1185.5,319.86a18.06,18.06,0,0,0-2.53,5.24l-48.8,164.46a18.19,18.19,0,0,0,2.53-5.24Z"/><path class="cls-2" d="M1265.5,489.56,1216.7,325.1a18.06,18.06,0,0,0-2.53-5.24L1263,484.32A18.19,18.19,0,0,0,1265.5,489.56Z"/><polygon class="cls-2" points="1119.31 539.61 1119.84 541.37 1120.31 539.75 1120.36 539.61 1119.84 537.85 1119.36 539.47 1119.31 539.61"/><path class="cls-2" d="M1359.84,312.63a17.26,17.26,0,0,0-14.33,7.23L1296.7,484.32a17.93,17.93,0,0,1-2.53,5.24l-14.33,48.29.52,1.76,0,.14-.48,1.62,14.23,48a17.8,17.8,0,0,1,2.63,5.37l48.91,164.81a17.83,17.83,0,0,0,28.46,0L1423,594.69a18,18,0,0,1,2.63-5.38l14.23-47.94-.52-1.76,0-.14.48-1.62-14.33-48.29a17.68,17.68,0,0,1-2.53-5.24l-48.81-164.46A17.28,17.28,0,0,0,1359.84,312.63Zm79.48,227-63.58,214.23a16.64,16.64,0,0,1-31.81,0l-63.57-214.23,63.57-214.23a16.64,16.64,0,0,1,31.81,0Z"/><path class="cls-2" d="M1345.51,319.86a17.56,17.56,0,0,0-2.53,5.24l-48.81,164.46a17.93,17.93,0,0,0,2.53-5.24Z"/><path class="cls-2" d="M1425.51,489.56,1376.7,325.1a17.81,17.81,0,0,0-2.53-5.24L1423,484.32A17.68,17.68,0,0,0,1425.51,489.56Z"/><polygon class="cls-2" points="1279.32 539.61 1279.84 541.37 1280.32 539.75 1280.36 539.61 1279.84 537.85 1279.36 539.47 1279.32 539.61"/><path class="cls-2" d="M1519.84,312.63a17.25,17.25,0,0,0-14.33,7.23L1456.7,484.32a17.68,17.68,0,0,1-2.53,5.24l-14.33,48.29.52,1.76,0,.14-.48,1.62,14.23,48a17.8,17.8,0,0,1,2.63,5.37l48.91,164.81a17.28,17.28,0,0,0,14.23,7.09h0a17.28,17.28,0,0,0,14.23-7.09L1583,594.69a18,18,0,0,1,2.63-5.38l14.23-47.94-.52-1.76,0-.14.48-1.62-14.33-48.29a17.68,17.68,0,0,1-2.53-5.24l-48.81-164.46A17.28,17.28,0,0,0,1519.84,312.63Zm79.48,227-63.58,214.23a16.63,16.63,0,0,1-31.8,0l-63.58-214.23,63.58-214.23a16.63,16.63,0,0,1,31.8,0Z"/><path class="cls-2" d="M1505.51,319.86a17.56,17.56,0,0,0-2.53,5.24l-48.81,164.46a17.68,17.68,0,0,0,2.53-5.24Z"/><path class="cls-2" d="M1585.51,489.56,1536.7,325.1a17.56,17.56,0,0,0-2.53-5.24L1583,484.32A17.68,17.68,0,0,0,1585.51,489.56Z"/><polygon class="cls-2" points="1439.32 539.61 1439.84 541.37 1440.32 539.75 1440.36 539.61 1439.84 537.85 1439.36 539.47 1439.32 539.61"/><path class="cls-2" d="M1679.84,312.63a17.25,17.25,0,0,0-14.33,7.23L1616.7,484.32a17.68,17.68,0,0,1-2.53,5.24l-14.33,48.29.52,1.76,0,.14-.48,1.62,14.23,48a17.8,17.8,0,0,1,2.63,5.37l48.91,164.81a17.83,17.83,0,0,0,28.46,0L1743,594.69a18,18,0,0,1,2.63-5.38l14.23-47.94-.52-1.76,0-.14.48-1.62-14.33-48.29a17.93,17.93,0,0,1-2.53-5.24l-48.81-164.46A17.26,17.26,0,0,0,1679.84,312.63Zm79.48,227-63.57,214.23a16.64,16.64,0,0,1-31.81,0l-63.58-214.23,63.58-214.23a16.64,16.64,0,0,1,31.81,0Z"/><path class="cls-2" d="M1665.51,319.86a17.81,17.81,0,0,0-2.53,5.24l-48.81,164.46a17.68,17.68,0,0,0,2.53-5.24Z"/><path class="cls-2" d="M1745.51,489.56,1696.7,325.1a17.56,17.56,0,0,0-2.53-5.24L1743,484.32A17.93,17.93,0,0,0,1745.51,489.56Z"/><polygon class="cls-2" points="1599.32 539.61 1599.84 541.37 1600.32 539.75 1600.36 539.61 1599.84 537.85 1599.36 539.47 1599.32 539.61"/><path class="cls-2" d="M1839.84,312.63a17.28,17.28,0,0,0-14.33,7.23l-48.8,164.46a18.19,18.19,0,0,1-2.53,5.24l-14.34,48.29.52,1.76,0,.14-.48,1.62,14.23,48a18.05,18.05,0,0,1,2.64,5.37l48.9,164.81a17.83,17.83,0,0,0,28.46,0L1903,594.69a17.8,17.8,0,0,1,2.63-5.37l14.23-48-.52-1.76,0-.14.48-1.62-14.33-48.29a18.19,18.19,0,0,1-2.53-5.24l-48.8-164.46A17.27,17.27,0,0,0,1839.84,312.63Zm79.48,227-63.57,214.23a16.64,16.64,0,0,1-31.81,0l-63.58-214.23,63.58-214.23a16.64,16.64,0,0,1,31.81,0Z"/><path class="cls-2" d="M1825.51,319.86a17.81,17.81,0,0,0-2.53,5.24l-48.8,164.46a18.19,18.19,0,0,0,2.53-5.24Z"/><path class="cls-2" d="M1905.51,489.56l-48.8-164.46a18.06,18.06,0,0,0-2.53-5.24L1903,484.32A18.19,18.19,0,0,0,1905.51,489.56Z"/><polygon class="cls-2" points="1759.32 539.61 1759.84 541.37 1760.32 539.75 1760.36 539.61 1759.84 537.85 1759.36 539.47 1759.32 539.61"/><polygon class="cls-2" points="1920 541.89 1920 540.84 1919.84 541.37 1920 541.89"/><polygon class="cls-2" points="1920 538.38 1920 537.33 1919.84 537.85 1920 538.38"/><polygon class="cls-2" points="1919.36 539.47 1919.32 539.61 1919.84 541.37 1920 540.84 1920 538.38 1919.84 537.85 1919.36 539.47"/><path class="cls-2" d="M15.73,595,79.3,809.2l0-.14.48-1.61-14.23-48A17.74,17.74,0,0,1,63,754.12L14.05,589.32a17.22,17.22,0,0,0-14-7.09v1A16.21,16.21,0,0,1,15.73,595Z"/><path class="cls-2" d="M14.15,1029,63,864.49a17.75,17.75,0,0,1,2.53-5.23L79.82,811l-.52-1.76L15.73,1023.43A16.21,16.21,0,0,1,0,1035.18v1A17.25,17.25,0,0,0,14.15,1029Z"/><path class="cls-2" d="M14.05,589.32,63,754.12a17.74,17.74,0,0,0,2.63,5.38L16.68,594.69A17.8,17.8,0,0,0,14.05,589.32Z"/><path class="cls-2" d="M159.82,1036.19a17.28,17.28,0,0,0,14.34-7.24L223,864.49a18,18,0,0,1,2.53-5.23L239.82,811l-.52-1.76-63.57,214.23a16.64,16.64,0,0,1-31.81,0L80.34,809.2l0,.15L79.82,811l14.34,48.3a18,18,0,0,1,2.53,5.23L145.49,1029A17.26,17.26,0,0,0,159.82,1036.19Z"/><path class="cls-2" d="M143.92,595a16.64,16.64,0,0,1,31.81,0L239.3,809.2l0-.14.47-1.61-14.22-48a17.53,17.53,0,0,1-2.64-5.38l-48.91-164.8a17.81,17.81,0,0,0-28.46,0l-48.9,164.8a18,18,0,0,1-2.64,5.38l-14.23,48,.52,1.75Z"/><path class="cls-2" d="M145.59,589.32a17.8,17.8,0,0,0-2.63,5.37L94.05,759.5a18,18,0,0,0,2.64-5.38Z"/><path class="cls-2" d="M174.05,589.32,223,754.12a17.53,17.53,0,0,0,2.64,5.38L176.69,594.69A18.05,18.05,0,0,0,174.05,589.32Z"/><polygon class="cls-2" points="80.34 809.2 79.82 807.45 79.34 809.06 79.3 809.2 79.82 810.96 80.3 809.35 80.34 809.2"/><path class="cls-2" d="M319.83,1036.19a17.26,17.26,0,0,0,14.33-7.24L383,864.49a18,18,0,0,1,2.53-5.23L399.83,811l-.52-1.76-63.58,214.23a16.64,16.64,0,0,1-31.81,0L240.35,809.2l0,.15-.48,1.61,14.34,48.3a18,18,0,0,1,2.53,5.23L305.49,1029A17.27,17.27,0,0,0,319.83,1036.19Z"/><path class="cls-2" d="M303.92,595a16.64,16.64,0,0,1,31.81,0L399.31,809.2l0-.14.48-1.61-14.23-48a18,18,0,0,1-2.64-5.38l-48.9-164.8a17.81,17.81,0,0,0-28.46,0l-48.91,164.8a17.53,17.53,0,0,1-2.64,5.38l-14.23,48,.53,1.75Z"/><path class="cls-2" d="M305.6,589.32a17.59,17.59,0,0,0-2.64,5.37L254.05,759.5a17.53,17.53,0,0,0,2.64-5.38Z"/><path class="cls-2" d="M334.06,589.32,383,754.12a18,18,0,0,0,2.64,5.38L336.69,594.69A17.8,17.8,0,0,0,334.06,589.32Z"/><polygon class="cls-2" points="240.35 809.2 239.82 807.45 239.34 809.06 239.3 809.2 239.82 810.96 240.3 809.35 240.35 809.2"/><path class="cls-2" d="M479.83,1036.19a17.26,17.26,0,0,0,14.33-7.24L543,864.49a17.51,17.51,0,0,1,2.53-5.23L559.83,811l-.52-1.76-63.58,214.23a16.64,16.64,0,0,1-31.81,0L400.35,809.2l0,.15-.48,1.61,14.33,48.3a18,18,0,0,1,2.53,5.23L465.49,1029A17.28,17.28,0,0,0,479.83,1036.19Z"/><path class="cls-2" d="M463.92,595a16.64,16.64,0,0,1,31.81,0L559.31,809.2l0-.14.48-1.61-14.23-48a17.74,17.74,0,0,1-2.63-5.38l-48.91-164.8a17.81,17.81,0,0,0-28.46,0l-48.91,164.8a17.74,17.74,0,0,1-2.63,5.38l-14.23,48,.52,1.75Z"/><path class="cls-2" d="M465.6,589.32a18.05,18.05,0,0,0-2.64,5.37L414.06,759.5a17.74,17.74,0,0,0,2.63-5.38Z"/><path class="cls-2" d="M494.06,589.32,543,754.12a17.74,17.74,0,0,0,2.63,5.38L496.69,594.69A17.8,17.8,0,0,0,494.06,589.32Z"/><polygon class="cls-2" points="400.35 809.2 399.83 807.45 399.35 809.06 399.31 809.2 399.83 810.96 400.31 809.35 400.35 809.2"/><path class="cls-2" d="M623.93,595a16.63,16.63,0,0,1,31.8,0L719.31,809.2l0-.14.48-1.61-14.23-48a17.74,17.74,0,0,1-2.63-5.38l-48.91-164.8a17.81,17.81,0,0,0-28.46,0l-48.91,164.8a17.74,17.74,0,0,1-2.63,5.38l-14.23,48,.52,1.75Z"/><path class="cls-2" d="M639.83,1036.19a17.26,17.26,0,0,0,14.33-7.24L703,864.49a17.51,17.51,0,0,1,2.53-5.23L719.83,811l-.52-1.76-63.58,214.23a16.63,16.63,0,0,1-31.8,0L560.35,809.2l0,.15-.48,1.61,14.33,48.3a17.75,17.75,0,0,1,2.53,5.23L625.5,1029A17.25,17.25,0,0,0,639.83,1036.19Z"/><path class="cls-2" d="M625.6,589.32a17.8,17.8,0,0,0-2.63,5.37L574.06,759.5a17.74,17.74,0,0,0,2.63-5.38Z"/><path class="cls-2" d="M654.06,589.32,703,754.12a17.74,17.74,0,0,0,2.63,5.38L656.69,594.69A17.8,17.8,0,0,0,654.06,589.32Z"/><polygon class="cls-2" points="560.35 809.2 559.83 807.45 559.35 809.06 559.31 809.2 559.83 810.96 560.31 809.35 560.35 809.2"/><path class="cls-2" d="M879.31,809.2l-63.58,214.23a16.63,16.63,0,0,1-31.8,0L720.35,809.2l0,.15-.48,1.61,14.33,48.3a17.51,17.51,0,0,1,2.53,5.23L785.5,1029a17.8,17.8,0,0,0,28.66,0L863,864.49a17.75,17.75,0,0,1,2.53-5.23L879.83,811Z"/><path class="cls-2" d="M783.93,595a16.63,16.63,0,0,1,31.8,0L879.31,809.2l0-.14.48-1.61-14.23-48a17.74,17.74,0,0,1-2.63-5.38l-48.91-164.8a17.81,17.81,0,0,0-28.46,0l-48.91,164.8a17.74,17.74,0,0,1-2.63,5.38l-14.23,48,.52,1.75Z"/><path class="cls-2" d="M785.6,589.32a17.8,17.8,0,0,0-2.63,5.37L734.06,759.5a17.74,17.74,0,0,0,2.63-5.38Z"/><path class="cls-2" d="M814.06,589.32,863,754.12a17.74,17.74,0,0,0,2.63,5.38L816.69,594.69A17.8,17.8,0,0,0,814.06,589.32Z"/><polygon class="cls-2" points="720.35 809.2 719.83 807.45 719.35 809.06 719.31 809.2 719.83 810.96 720.31 809.35 720.35 809.2"/><path class="cls-2" d="M1039.31,809.2l-63.57,214.23a16.64,16.64,0,0,1-31.81,0L880.35,809.2l0,.15-.48,1.61,14.33,48.3a17.51,17.51,0,0,1,2.53,5.23L945.5,1029a17.26,17.26,0,0,0,14.33,7.24h0a17.28,17.28,0,0,0,14.34-7.24L1023,864.49a18,18,0,0,1,2.53-5.23l14.33-48.3Z"/><path class="cls-2" d="M1039.83,807.45l-14.23-48a17.74,17.74,0,0,1-2.63-5.38l-48.91-164.8a17.81,17.81,0,0,0-28.46,0l-48.91,164.8a17.74,17.74,0,0,1-2.63,5.38l-14.23,48,.52,1.75L943.93,595a16.64,16.64,0,0,1,31.81,0l63.57,214.22,0-.14Z"/><path class="cls-2" d="M945.6,589.32a17.8,17.8,0,0,0-2.63,5.37L894.06,759.5a17.74,17.74,0,0,0,2.63-5.38Z"/><path class="cls-2" d="M974.06,589.32,1023,754.12a17.74,17.74,0,0,0,2.63,5.38L976.7,594.69A18.05,18.05,0,0,0,974.06,589.32Z"/><polygon class="cls-2" points="879.35 809.06 879.31 809.2 879.83 810.96 880.31 809.35 880.35 809.2 879.83 807.45 879.35 809.06"/><path class="cls-2" d="M1199.31,809.2l-63.57,214.23a16.64,16.64,0,0,1-31.81,0L1040.36,809.2l0,.15-.48,1.61,14.34,48.3a18,18,0,0,1,2.53,5.23L1105.5,1029a17.81,17.81,0,0,0,28.67,0L1183,864.49a18,18,0,0,1,2.53-5.23l14.34-48.3Z"/><path class="cls-2" d="M1183,754.12l-48.91-164.8a17.8,17.8,0,0,0-28.45,0l-48.91,164.8a18,18,0,0,1-2.64,5.38l-14.23,48,.53,1.75L1103.93,595a16.64,16.64,0,0,1,31.81,0l63.57,214.22,0-.14.48-1.61-14.23-48A17.76,17.76,0,0,1,1183,754.12Z"/><path class="cls-2" d="M1054.06,759.5a18,18,0,0,0,2.64-5.38l48.91-164.8a17.59,17.59,0,0,0-2.64,5.37Z"/><path class="cls-2" d="M1185.61,759.5,1136.7,594.69a17.59,17.59,0,0,0-2.64-5.37L1183,754.12A17.76,17.76,0,0,0,1185.61,759.5Z"/><polygon class="cls-2" points="1039.35 809.06 1039.31 809.2 1039.83 810.96 1040.31 809.35 1040.36 809.2 1039.83 807.45 1039.35 809.06"/><path class="cls-2" d="M1343,754.12l-48.91-164.8a17.81,17.81,0,0,0-28.46,0l-48.91,164.8a17.53,17.53,0,0,1-2.64,5.38l-14.22,48,.52,1.75L1263.93,595a16.64,16.64,0,0,1,31.81,0l63.58,214.22,0-.14.48-1.61-14.23-48A17.74,17.74,0,0,1,1343,754.12Z"/><path class="cls-2" d="M1295.74,1023.43a16.64,16.64,0,0,1-31.81,0L1200.36,809.2l0,.15-.48,1.61,14.33,48.3a18,18,0,0,1,2.53,5.23L1265.5,1029a17.81,17.81,0,0,0,28.67,0L1343,864.49a17.51,17.51,0,0,1,2.53-5.23l14.33-48.3-.52-1.76Z"/><path class="cls-2" d="M1214.06,759.5a17.53,17.53,0,0,0,2.64-5.38l48.91-164.8a18.05,18.05,0,0,0-2.64,5.37Z"/><path class="cls-2" d="M1345.61,759.5,1296.7,594.69a17.8,17.8,0,0,0-2.63-5.37L1343,754.12A17.74,17.74,0,0,0,1345.61,759.5Z"/><polygon class="cls-2" points="1199.31 809.2 1199.84 810.96 1200.32 809.35 1200.36 809.2 1199.84 807.45 1199.36 809.06 1199.31 809.2"/><path class="cls-2" d="M1455.74,1023.43a16.63,16.63,0,0,1-31.8,0L1360.36,809.2l0,.15-.48,1.61,14.33,48.3a17.75,17.75,0,0,1,2.53,5.23L1425.51,1029a17.25,17.25,0,0,0,14.33,7.24h0a17.26,17.26,0,0,0,14.33-7.24L1503,864.49a17.68,17.68,0,0,1,2.53-5.24L1519.84,811l-.52-1.76Z"/><path class="cls-2" d="M1503,754.12l-48.91-164.8a17.82,17.82,0,0,0-28.46,0L1376.7,754.12a17.74,17.74,0,0,1-2.63,5.38l-14.23,48,.52,1.75L1423.93,595a16.64,16.64,0,0,1,31.81,0l63.58,214.22,0-.14.48-1.61-14.23-48A17.74,17.74,0,0,1,1503,754.12Z"/><path class="cls-2" d="M1374.07,759.5a17.74,17.74,0,0,0,2.63-5.38l48.91-164.81a18,18,0,0,0-2.63,5.38Z"/><path class="cls-2" d="M1505.61,759.5,1456.7,594.69a17.8,17.8,0,0,0-2.63-5.37L1503,754.12A17.74,17.74,0,0,0,1505.61,759.5Z"/><polygon class="cls-2" points="1359.32 809.2 1359.84 810.96 1360.32 809.35 1360.36 809.2 1359.84 807.45 1359.36 809.06 1359.32 809.2"/><path class="cls-2" d="M1615.74,1023.43a16.63,16.63,0,0,1-31.8,0L1520.36,809.2l0,.15-.48,1.61,14.33,48.3a17.51,17.51,0,0,1,2.53,5.23L1585.51,1029a17.8,17.8,0,0,0,28.66,0L1663,864.49a17.93,17.93,0,0,1,2.53-5.24L1679.84,811l-.52-1.76Z"/><path class="cls-2" d="M1663,754.12l-48.91-164.8a17.82,17.82,0,0,0-28.46,0L1536.7,754.12a17.74,17.74,0,0,1-2.63,5.38l-14.23,48,.52,1.75L1583.94,595a16.63,16.63,0,0,1,31.8,0l63.58,214.22,0-.14.48-1.61-14.23-48A17.74,17.74,0,0,1,1663,754.12Z"/><path class="cls-2" d="M1534.07,759.5a17.74,17.74,0,0,0,2.63-5.38l48.91-164.81a18,18,0,0,0-2.63,5.38Z"/><path class="cls-2" d="M1665.61,759.5,1616.7,594.69a17.8,17.8,0,0,0-2.63-5.37L1663,754.12A17.74,17.74,0,0,0,1665.61,759.5Z"/><polygon class="cls-2" points="1519.32 809.2 1519.84 810.96 1520.32 809.35 1520.36 809.2 1519.84 807.45 1519.36 809.06 1519.32 809.2"/><path class="cls-2" d="M1823,754.12l-48.91-164.8a17.82,17.82,0,0,0-28.46,0L1696.7,754.12a17.74,17.74,0,0,1-2.63,5.38l-14.23,48,.52,1.75L1743.94,595a16.64,16.64,0,0,1,31.81,0l63.57,214.22,0-.14.48-1.61-14.23-48A17.74,17.74,0,0,1,1823,754.12Z"/><path class="cls-2" d="M1775.75,1023.43a16.64,16.64,0,0,1-31.81,0L1680.36,809.2l0,.15-.48,1.61,14.33,48.3a17.51,17.51,0,0,1,2.53,5.23L1745.51,1029a17.81,17.81,0,0,0,28.67,0L1823,864.49a17.75,17.75,0,0,1,2.53-5.23l14.33-48.3-.52-1.76Z"/><path class="cls-2" d="M1694.07,759.5a17.74,17.74,0,0,0,2.63-5.38l48.91-164.81a18,18,0,0,0-2.63,5.38Z"/><path class="cls-2" d="M1825.61,759.5l-48.9-164.81a18.05,18.05,0,0,0-2.64-5.37L1823,754.12A17.74,17.74,0,0,0,1825.61,759.5Z"/><polygon class="cls-2" points="1679.32 809.2 1679.84 810.96 1680.32 809.35 1680.36 809.2 1679.84 807.45 1679.36 809.06 1679.32 809.2"/><path class="cls-2" d="M1905.61,589.32l-48.9,164.8a18,18,0,0,1-2.64,5.38l-14.23,48,.52,1.75L1903.94,595a16.21,16.21,0,0,1,15.9-11.76h.16v-1h-.16A17.28,17.28,0,0,0,1905.61,589.32Z"/><path class="cls-2" d="M1903.94,1023.43,1840.36,809.2l0,.15-.48,1.61,14.33,48.29a18,18,0,0,1,2.54,5.24l48.8,164.46a17.26,17.26,0,0,0,14.33,7.24h.16v-1h-.16A16.22,16.22,0,0,1,1903.94,1023.43Z"/><path class="cls-2" d="M1854.07,759.5a18,18,0,0,0,2.64-5.38l48.9-164.8a17.8,17.8,0,0,0-2.63,5.37Z"/><polygon class="cls-2" points="1839.32 809.2 1839.84 810.96 1840.32 809.35 1840.36 809.2 1839.84 807.45 1839.36 809.06 1839.32 809.2"/><path class="cls-2" d="M.64,1080l-.3-1L63.92,864.78a16.64,16.64,0,0,1,31.81,0L159.3,1079l0-.14.48-1.62L145.49,1029a18,18,0,0,1-2.53-5.23L94.16,859.26a17.81,17.81,0,0,0-28.67,0L16.68,1023.72a17.51,17.51,0,0,1-2.53,5.23L0,1076.65V1080Z"/><polygon class="cls-2" points="159.01 1080 159.6 1080 159.3 1079.01 159.01 1080"/><path class="cls-2" d="M14.15,1029a17.51,17.51,0,0,0,2.53-5.23L65.49,859.26A17.75,17.75,0,0,0,63,864.49Z"/><path class="cls-2" d="M94.16,859.26,143,1023.72a18,18,0,0,0,2.53,5.23L96.69,864.49A18,18,0,0,0,94.16,859.26Z"/><polygon class="cls-2" points="160.3 1079.15 160.05 1080 160.64 1080 160.34 1079.01 160.3 1079.15"/><polygon class="cls-2" points="319.01 1080 319.6 1080 319.3 1079.01 319.01 1080"/><path class="cls-2" d="M223.92,864.78a16.64,16.64,0,0,1,31.81,0L319.3,1079l.05-.14.48-1.62L305.49,1029a18,18,0,0,1-2.53-5.23l-48.8-164.46a17.81,17.81,0,0,0-28.67,0l-48.8,164.46a18,18,0,0,1-2.53,5.23l-14.34,48.3.53,1.76Z"/><path class="cls-2" d="M174.16,1029a18,18,0,0,0,2.53-5.23l48.8-164.46a18,18,0,0,0-2.53,5.23Z"/><path class="cls-2" d="M254.16,859.26,303,1023.72a18,18,0,0,0,2.53,5.23l-48.8-164.46A18,18,0,0,0,254.16,859.26Z"/><polygon class="cls-2" points="160.3 1079.15 160.34 1079.01 159.82 1077.25 159.34 1078.87 159.3 1079.01 159.6 1080 160.05 1080 160.3 1079.15"/><polygon class="cls-2" points="320.31 1079.15 320.05 1080 320.64 1080 320.35 1079.01 320.31 1079.15"/><polygon class="cls-2" points="479.01 1080 479.6 1080 479.31 1079.01 479.01 1080"/><path class="cls-2" d="M383.92,864.78a16.64,16.64,0,0,1,31.81,0L479.31,1079l0-.14.48-1.62L465.49,1029a18,18,0,0,1-2.53-5.23l-48.8-164.46a17.81,17.81,0,0,0-28.67,0l-48.8,164.46a18,18,0,0,1-2.53,5.23l-14.33,48.3.52,1.76Z"/><path class="cls-2" d="M334.16,1029a18,18,0,0,0,2.53-5.23l48.8-164.46a18,18,0,0,0-2.53,5.23Z"/><path class="cls-2" d="M414.16,859.26,463,1023.72a18,18,0,0,0,2.53,5.23l-48.8-164.46A18,18,0,0,0,414.16,859.26Z"/><polygon class="cls-2" points="320.31 1079.15 320.35 1079.01 319.83 1077.25 319.35 1078.87 319.3 1079.01 319.6 1080 320.05 1080 320.31 1079.15"/><polygon class="cls-2" points="639.01 1080 639.6 1080 639.31 1079.01 639.01 1080"/><path class="cls-2" d="M543.92,864.78a16.64,16.64,0,0,1,31.81,0L639.31,1079l0-.14.48-1.62L625.5,1029a17.51,17.51,0,0,1-2.53-5.23L574.16,859.26a17.8,17.8,0,0,0-28.66,0l-48.81,164.46a17.75,17.75,0,0,1-2.53,5.23l-14.33,48.3.52,1.76Z"/><polygon class="cls-2" points="480.31 1079.15 480.06 1080 480.64 1080 480.35 1079.01 480.31 1079.15"/><path class="cls-2" d="M494.16,1029a17.75,17.75,0,0,0,2.53-5.23L545.5,859.26a17.51,17.51,0,0,0-2.53,5.23Z"/><path class="cls-2" d="M574.16,859.26,623,1023.72a17.51,17.51,0,0,0,2.53,5.23L576.69,864.49A17.75,17.75,0,0,0,574.16,859.26Z"/><polygon class="cls-2" points="480.35 1079.01 479.83 1077.25 479.35 1078.87 479.31 1079.01 479.6 1080 480.06 1080 480.31 1079.15 480.35 1079.01"/><polygon class="cls-2" points="799.01 1080 799.6 1080 799.31 1079.01 799.01 1080"/><path class="cls-2" d="M783,1023.72,734.16,859.26a17.8,17.8,0,0,0-28.66,0l-48.81,164.46a17.51,17.51,0,0,1-2.53,5.23l-14.33,48.3.52,1.76,63.58-214.23a16.63,16.63,0,0,1,31.8,0L799.31,1079l0-.14.48-1.62L785.5,1029A17.51,17.51,0,0,1,783,1023.72Z"/><polygon class="cls-2" points="640.31 1079.15 640.06 1080 640.64 1080 640.35 1079.01 640.31 1079.15"/><path class="cls-2" d="M654.16,1029a17.51,17.51,0,0,0,2.53-5.23L705.5,859.26a17.51,17.51,0,0,0-2.53,5.23Z"/><path class="cls-2" d="M734.16,859.26,783,1023.72a17.51,17.51,0,0,0,2.53,5.23L736.69,864.49A17.51,17.51,0,0,0,734.16,859.26Z"/><polygon class="cls-2" points="640.35 1079.01 639.83 1077.25 639.35 1078.87 639.31 1079.01 639.6 1080 640.06 1080 640.31 1079.15 640.35 1079.01"/><polygon class="cls-2" points="800.31 1079.15 800.06 1080 800.65 1080 800.35 1079.01 800.31 1079.15"/><polygon class="cls-2" points="959.02 1080 959.61 1080 959.31 1079.01 959.02 1080"/><path class="cls-2" d="M943,1023.72,894.16,859.26a17.8,17.8,0,0,0-28.66,0l-48.81,164.46a17.51,17.51,0,0,1-2.53,5.23l-14.33,48.3.52,1.76,63.58-214.23a16.64,16.64,0,0,1,31.81,0L959.31,1079l0-.14.48-1.62L945.5,1029A17.75,17.75,0,0,1,943,1023.72Z"/><path class="cls-2" d="M814.16,1029a17.51,17.51,0,0,0,2.53-5.23L865.5,859.26a17.75,17.75,0,0,0-2.53,5.23Z"/><path class="cls-2" d="M894.16,859.26,943,1023.72a17.75,17.75,0,0,0,2.53,5.23L896.69,864.49A17.51,17.51,0,0,0,894.16,859.26Z"/><polygon class="cls-2" points="800.35 1079.01 799.83 1077.25 799.35 1078.87 799.31 1079.01 799.6 1080 800.06 1080 800.31 1079.15 800.35 1079.01"/><polygon class="cls-2" points="1119.02 1080 1119.61 1080 1119.31 1079.01 1119.02 1080"/><polygon class="cls-2" points="960.31 1079.15 960.06 1080 960.65 1080 960.35 1079.01 960.31 1079.15"/><path class="cls-2" d="M1103,1023.72l-48.8-164.46a17.81,17.81,0,0,0-28.67,0l-48.8,164.46a18,18,0,0,1-2.53,5.23l-14.34,48.3.52,1.76,63.58-214.23a16.64,16.64,0,0,1,31.81,0L1119.31,1079l0-.14.47-1.62L1105.5,1029A18,18,0,0,1,1103,1023.72Z"/><path class="cls-2" d="M974.17,1029a18,18,0,0,0,2.53-5.23l48.8-164.46a18,18,0,0,0-2.53,5.23Z"/><path class="cls-2" d="M1054.17,859.26l48.8,164.46a18,18,0,0,0,2.53,5.23l-48.8-164.46A18,18,0,0,0,1054.17,859.26Z"/><polygon class="cls-2" points="960.35 1079.01 959.83 1077.25 959.35 1078.87 959.31 1079.01 959.61 1080 960.06 1080 960.31 1079.15 960.35 1079.01"/><polygon class="cls-2" points="1279.02 1080 1279.61 1080 1279.32 1079.01 1279.02 1080"/><path class="cls-2" d="M1263,1023.72l-48.8-164.46a17.81,17.81,0,0,0-28.67,0l-48.8,164.46a18,18,0,0,1-2.53,5.23l-14.34,48.3.53,1.76,63.57-214.23a16.64,16.64,0,0,1,31.81,0L1279.32,1079l0-.14.48-1.62L1265.5,1029A18,18,0,0,1,1263,1023.72Z"/><polygon class="cls-2" points="1120.31 1079.15 1120.06 1080 1120.65 1080 1120.36 1079.01 1120.31 1079.15"/><path class="cls-2" d="M1134.17,1029a18,18,0,0,0,2.53-5.23l48.8-164.46a18,18,0,0,0-2.53,5.23Z"/><path class="cls-2" d="M1214.17,859.26l48.8,164.46a18,18,0,0,0,2.53,5.23l-48.8-164.46A18,18,0,0,0,1214.17,859.26Z"/><polygon class="cls-2" points="1120.36 1079.01 1119.84 1077.25 1119.36 1078.87 1119.31 1079.01 1119.61 1080 1120.06 1080 1120.31 1079.15 1120.36 1079.01"/><polygon class="cls-2" points="1280.32 1079.15 1280.06 1080 1280.65 1080 1280.36 1079.01 1280.32 1079.15"/><polygon class="cls-2" points="1439.02 1080 1439.61 1080 1439.32 1079.01 1439.02 1080"/><path class="cls-2" d="M1423,1023.72l-48.81-164.46a17.8,17.8,0,0,0-28.66,0l-48.81,164.46a17.75,17.75,0,0,1-2.53,5.23l-14.33,48.3.52,1.76,63.57-214.23a16.64,16.64,0,0,1,31.81,0L1439.32,1079l0-.14.48-1.62-14.33-48.3A17.51,17.51,0,0,1,1423,1023.72Z"/><path class="cls-2" d="M1294.17,1029a17.75,17.75,0,0,0,2.53-5.23l48.81-164.46a17.51,17.51,0,0,0-2.53,5.23Z"/><path class="cls-2" d="M1425.51,1029,1376.7,864.49a17.75,17.75,0,0,0-2.53-5.23L1423,1023.72A17.51,17.51,0,0,0,1425.51,1029Z"/><polygon class="cls-2" points="1280.36 1079.01 1279.84 1077.25 1279.36 1078.87 1279.32 1079.01 1279.61 1080 1280.06 1080 1280.32 1079.15 1280.36 1079.01"/><polygon class="cls-2" points="1440.32 1079.15 1440.07 1080 1440.65 1080 1440.36 1079.01 1440.32 1079.15"/><polygon class="cls-2" points="1599.03 1080 1599.61 1080 1599.32 1079.01 1599.03 1080"/><path class="cls-2" d="M1519.84,852a17.28,17.28,0,0,0-14.33,7.23l-48.81,164.47a17.51,17.51,0,0,1-2.53,5.23l-14.33,48.3.52,1.76,63.58-214.23a16.63,16.63,0,0,1,31.8,0L1599.32,1079l0-.14.48-1.62-14.33-48.3a17.51,17.51,0,0,1-2.53-5.23l-48.81-164.46A17.26,17.26,0,0,0,1519.84,852Z"/><path class="cls-2" d="M1505.51,859.25a17.68,17.68,0,0,0-2.53,5.24L1454.17,1029a17.51,17.51,0,0,0,2.53-5.23Z"/><path class="cls-2" d="M1585.51,1029,1536.7,864.49a17.51,17.51,0,0,0-2.53-5.23L1583,1023.72A17.51,17.51,0,0,0,1585.51,1029Z"/><polygon class="cls-2" points="1440.36 1079.01 1439.84 1077.25 1439.36 1078.87 1439.32 1079.01 1439.61 1080 1440.07 1080 1440.32 1079.15 1440.36 1079.01"/><polygon class="cls-2" points="1600.32 1079.15 1600.07 1080 1600.66 1080 1600.36 1079.01 1600.32 1079.15"/><polygon class="cls-2" points="1759.62 1080 1759.32 1079.01 1759.03 1080 1759.62 1080"/><path class="cls-2" d="M1679.84,852a17.28,17.28,0,0,0-14.33,7.23l-48.81,164.47a17.51,17.51,0,0,1-2.53,5.23l-14.33,48.3.52,1.76,63.58-214.23a16.64,16.64,0,0,1,31.81,0L1759.32,1079l0-.14.48-1.62-14.33-48.3a17.75,17.75,0,0,1-2.53-5.23l-48.81-164.46A17.25,17.25,0,0,0,1679.84,852Z"/><path class="cls-2" d="M1665.51,859.25a17.93,17.93,0,0,0-2.53,5.24L1614.17,1029a17.51,17.51,0,0,0,2.53-5.23Z"/><path class="cls-2" d="M1745.51,1029,1696.7,864.49a17.51,17.51,0,0,0-2.53-5.23L1743,1023.72A17.75,17.75,0,0,0,1745.51,1029Z"/><polygon class="cls-2" points="1600.36 1079.01 1599.84 1077.25 1599.36 1078.87 1599.32 1079.01 1599.61 1080 1600.07 1080 1600.32 1079.15 1600.36 1079.01"/><polygon class="cls-2" points="1760.32 1079.15 1760.07 1080 1760.66 1080 1760.36 1079.01 1760.32 1079.15"/><polygon class="cls-2" points="1919.62 1080 1919.32 1079.01 1919.03 1080 1919.62 1080"/><path class="cls-2" d="M1839.84,852a17.26,17.26,0,0,0-14.33,7.24l-48.8,164.46a18,18,0,0,1-2.53,5.23l-14.34,48.3.52,1.76,63.58-214.23a16.64,16.64,0,0,1,31.81,0L1919.32,1079l0-.14.48-1.62-14.33-48.3a18,18,0,0,1-2.53-5.23l-48.81-164.47A17.26,17.26,0,0,0,1839.84,852Z"/><path class="cls-2" d="M1825.51,859.26a17.75,17.75,0,0,0-2.53,5.23L1774.18,1029a18,18,0,0,0,2.53-5.23Z"/><path class="cls-2" d="M1905.51,1029l-48.8-164.46a18,18,0,0,0-2.54-5.24L1903,1023.72A18,18,0,0,0,1905.51,1029Z"/><polygon class="cls-2" points="1760.36 1079.01 1759.84 1077.25 1759.36 1078.87 1759.32 1079.01 1759.62 1080 1760.07 1080 1760.32 1079.15 1760.36 1079.01"/><polygon class="cls-2" points="1920 1077.78 1920 1076.72 1919.84 1077.25 1920 1077.78"/><polygon class="cls-2" points="1919.36 1078.87 1919.32 1079.01 1919.62 1080 1920 1080 1920 1077.78 1919.84 1077.25 1919.36 1078.87"/></svg>